<?xml version="1.0" encoding="UTF-8" ?>
<!DOCTYPE svg PUBLIC "-//W3C//DTD SVG 1.1//EN" "http://www.w3.org/Graphics/SVG/1.1/DTD/svg11.dtd">
<svg width="1024pt" height="1024pt" viewBox="0 0 1024 1024" version="1.1" xmlns="http://www.w3.org/2000/svg">
<g id="#ffffffff">
<path fill="#ffffff" opacity="1.00" d=" M 302.42 34.52 C 419.28 34.13 536.14 34.45 653.00 34.34 C 691.31 34.24 729.62 34.63 767.93 35.03 C 775.18 36.54 782.55 37.62 789.99 37.72 C 795.32 37.69 800.62 38.58 805.72 40.14 C 810.05 40.83 814.58 40.47 818.74 42.15 C 822.01 43.67 825.99 41.88 828.98 44.09 C 831.87 45.95 835.44 45.42 838.64 46.20 C 841.21 47.56 843.90 48.60 846.83 48.89 C 874.65 58.11 900.45 73.93 921.72 94.27 C 927.23 100.76 933.97 106.10 939.08 112.93 C 951.02 127.63 961.24 143.82 968.53 161.31 C 970.40 163.61 970.15 166.80 971.93 169.12 C 973.64 171.30 972.90 174.35 974.26 176.72 C 975.60 179.40 975.37 182.54 976.76 185.19 C 979.18 189.08 977.63 194.06 979.99 197.99 C 981.52 200.05 981.04 202.67 981.25 205.07 C 981.25 208.58 983.11 211.75 983.30 215.24 C 983.57 219.24 983.68 223.29 984.93 227.15 C 987.19 238.06 985.90 249.35 987.78 260.31 C 988.35 262.81 988.30 265.39 988.38 267.94 C 989.09 305.63 988.78 343.31 988.93 381.00 C 988.90 494.00 989.09 607.01 988.92 720.01 C 988.75 734.61 988.99 749.23 988.15 763.81 C 986.36 774.08 986.97 784.60 985.67 794.91 C 983.67 800.98 984.22 807.44 982.79 813.61 C 981.53 816.58 981.17 819.78 981.19 822.99 C 981.37 826.00 979.01 828.35 978.76 831.28 C 978.50 834.16 978.09 837.05 976.81 839.68 C 975.46 842.42 975.88 845.67 974.43 848.37 C 972.91 850.93 973.60 854.25 971.55 856.56 C 965.44 872.43 957.06 887.38 947.33 901.33 C 941.54 908.80 936.00 916.53 928.99 922.95 C 907.82 945.86 880.93 963.33 851.78 974.17 C 850.08 974.56 848.30 974.80 846.89 975.90 C 844.62 977.86 841.39 976.56 838.82 977.72 C 836.93 978.49 835.07 979.42 833.00 979.53 C 828.48 979.74 824.52 982.48 819.96 982.42 C 816.41 982.35 813.07 983.50 809.91 984.96 C 805.68 985.36 801.35 984.75 797.23 985.97 C 789.67 988.04 781.76 987.38 774.04 988.02 C 764.18 990.03 754.02 989.52 744.01 989.83 C 690.34 990.16 636.67 989.92 583.00 990.00 C 512.34 989.99 441.67 990.01 371.00 990.00 C 337.66 989.90 304.33 990.20 270.99 989.71 C 263.63 989.44 256.17 989.64 248.97 988.00 C 241.09 987.39 233.03 987.99 225.34 985.85 C 221.35 984.70 217.16 985.38 213.09 984.96 C 209.95 983.43 206.58 982.35 203.04 982.41 C 198.78 982.57 195.21 979.70 191.00 979.63 C 187.13 979.64 184.02 976.77 180.12 977.02 C 157.45 970.02 135.90 958.61 117.08 943.92 C 110.20 938.90 104.04 933.00 98.12 926.90 C 81.74 911.69 69.26 892.78 58.79 873.16 C 54.06 862.17 48.77 851.37 46.50 839.57 C 44.00 835.47 45.10 830.42 42.99 826.22 C 40.86 822.78 42.41 818.52 40.99 814.86 C 38.88 809.56 39.46 803.75 38.57 798.25 C 35.17 786.88 37.55 774.78 34.93 763.29 C 33.74 736.21 34.33 709.09 34.08 682.00 C 34.11 573.66 34.12 465.34 34.17 357.00 C 34.37 326.66 33.97 296.31 34.81 265.97 C 34.82 263.86 35.15 261.77 35.62 259.72 C 37.16 249.05 35.77 238.08 38.45 227.56 C 40.02 221.91 38.92 215.84 41.09 210.32 C 42.52 206.66 40.82 202.37 43.01 198.99 C 45.14 195.26 44.04 190.68 45.94 186.87 C 47.74 183.51 47.27 179.48 49.16 176.15 C 50.20 169.91 53.71 164.52 55.78 158.59 C 64.00 140.55 74.74 123.65 87.67 108.62 C 91.93 103.59 97.09 99.43 101.37 94.42 C 115.29 80.84 131.45 69.64 148.61 60.58 C 152.64 57.99 157.47 56.93 161.46 54.25 C 163.96 53.70 166.32 52.75 168.43 51.29 C 171.80 51.02 174.64 48.95 177.97 48.58 C 179.47 48.40 180.93 47.98 182.24 47.23 C 185.79 44.87 190.48 46.48 194.04 44.10 C 197.27 41.81 201.58 43.74 205.10 42.02 C 209.99 39.96 215.52 41.31 220.41 39.29 C 224.51 38.22 228.77 37.75 233.01 37.73 C 240.44 37.60 247.82 36.58 255.07 35.03 C 270.86 34.87 286.64 34.84 302.42 34.52 M 380.56 84.62 C 371.37 88.33 364.12 95.38 356.46 101.46 C 351.32 106.94 345.16 111.32 340.01 116.80 C 331.31 125.84 321.90 134.22 313.94 143.95 C 308.23 149.30 303.46 155.51 297.99 161.10 C 293.47 166.84 287.86 171.57 283.35 177.30 C 279.07 182.02 274.40 186.37 270.35 191.29 C 262.23 199.65 254.04 208.56 243.19 213.36 C 237.52 216.05 230.99 217.00 226.00 221.03 C 219.85 225.93 215.74 232.80 212.60 239.90 C 208.23 249.75 200.82 257.85 192.76 264.83 C 182.02 273.13 169.56 278.72 158.21 286.08 C 146.74 292.95 136.11 301.25 126.82 310.87 C 114.98 322.18 104.21 334.76 95.95 348.94 C 90.13 359.07 85.14 370.18 84.61 382.02 C 84.71 386.44 85.18 392.05 89.56 394.41 C 94.02 397.36 99.12 394.16 103.23 392.11 C 114.36 385.69 123.42 376.43 132.98 367.98 C 140.61 360.56 148.05 352.95 155.64 345.49 C 159.98 340.83 164.05 335.92 168.62 331.49 C 176.25 323.13 183.72 314.63 191.50 306.40 C 197.33 299.28 204.39 293.31 210.15 286.12 C 218.37 277.90 226.76 269.08 237.86 264.84 C 242.11 263.17 246.62 262.03 250.56 259.65 C 253.77 257.61 256.42 254.81 258.97 252.01 C 263.56 246.18 265.98 239.07 269.71 232.73 C 273.80 226.01 279.37 220.38 285.14 215.10 C 293.65 208.27 303.40 203.30 312.77 197.81 C 323.86 191.58 334.32 184.26 344.06 176.08 C 350.81 169.49 357.53 162.85 364.09 156.07 C 376.62 141.16 388.71 124.83 393.18 105.53 C 394.43 99.26 395.33 91.98 391.48 86.42 C 388.85 82.99 384.22 83.03 380.56 84.62 M 633.25 83.96 C 627.91 85.71 626.93 92.14 626.83 96.98 C 627.52 111.21 634.20 124.32 641.80 136.07 C 650.01 148.90 660.46 160.09 671.39 170.63 C 683.86 182.95 698.61 192.69 713.96 201.05 C 721.58 205.19 729.10 209.62 735.84 215.11 C 743.44 222.02 750.71 229.70 754.91 239.21 C 757.62 245.64 761.12 251.94 766.46 256.55 C 771.74 261.47 778.91 263.35 785.64 265.38 C 802.07 274.29 813.49 289.58 826.37 302.69 C 830.84 308.43 836.51 313.10 840.96 318.87 C 846.30 324.28 850.79 330.45 856.43 335.57 C 869.96 350.97 884.86 365.14 900.06 378.87 C 907.82 385.03 915.30 392.29 925.03 395.18 C 929.31 396.90 934.03 393.69 935.34 389.57 C 937.79 382.54 935.88 375.00 933.87 368.11 C 928.76 351.64 918.21 337.71 907.57 324.45 C 897.97 314.38 888.45 304.12 877.22 295.84 C 862.67 284.47 845.64 276.96 830.51 266.50 C 819.83 258.36 811.08 247.47 806.04 234.98 C 801.94 226.26 794.51 218.70 785.07 216.04 C 771.62 212.18 760.83 202.51 751.94 192.08 C 747.73 187.59 743.42 183.20 739.06 178.88 C 725.75 163.58 711.73 148.92 698.06 133.94 C 682.29 118.38 667.10 101.98 648.95 89.14 C 644.22 86.50 638.91 82.45 633.25 83.96 M 191.05 218.84 C 186.23 229.94 185.69 242.54 188.81 254.18 C 193.83 249.66 198.39 244.52 201.53 238.51 C 203.62 234.59 205.10 230.37 207.48 226.61 C 210.64 221.25 214.98 216.69 219.71 212.69 C 224.82 208.57 231.14 206.60 237.22 204.43 C 245.17 201.63 250.94 195.27 257.16 189.91 C 250.33 187.71 243.11 186.45 235.93 187.10 C 216.57 188.03 198.50 201.00 191.05 218.84 M 764.04 189.82 C 766.27 191.59 768.37 193.54 770.37 195.58 C 775.87 201.42 783.49 204.58 790.96 207.06 C 801.72 210.54 809.68 219.54 814.97 229.19 C 817.63 234.93 821.16 240.21 824.91 245.28 C 827.53 248.19 829.07 251.94 832.28 254.32 C 833.28 249.93 833.97 245.48 834.33 240.99 C 834.70 236.01 833.27 231.15 832.13 226.36 C 830.49 217.17 825.52 208.64 818.61 202.40 C 805.06 187.78 782.63 183.40 764.04 189.82 M 352.83 208.81 C 342.24 216.84 336.02 229.80 335.06 242.91 C 334.89 260.63 335.09 278.36 334.97 296.08 C 335.17 297.73 333.86 298.83 332.85 299.91 C 319.24 313.60 305.47 327.14 291.94 340.92 C 296.71 345.61 300.79 350.91 305.29 355.86 C 315.17 345.95 325.16 336.16 334.92 326.13 C 335.08 334.69 334.98 343.26 334.98 351.82 C 329.05 357.95 322.86 363.83 316.95 369.99 C 322.77 377.55 328.63 385.10 334.24 392.82 C 334.86 393.77 335.11 394.81 335.01 395.96 C 334.98 472.65 335.03 549.33 334.98 626.02 C 335.12 627.63 333.96 628.85 333.14 630.10 C 328.57 636.51 323.53 642.56 318.88 648.90 C 311.14 657.60 304.61 667.32 296.39 675.60 C 292.94 679.75 289.09 683.56 286.03 688.03 C 278.84 694.81 272.22 702.19 265.05 708.99 C 259.79 711.67 255.85 716.45 250.07 718.20 C 240.61 722.94 230.72 726.75 221.13 731.21 C 226.83 737.13 233.02 742.89 240.63 746.24 C 246.06 748.40 251.93 749.71 256.77 753.15 C 265.78 758.91 271.77 768.23 275.90 777.90 C 279.24 785.69 285.31 791.71 291.27 797.54 C 297.91 781.37 304.67 764.62 317.07 751.89 C 322.49 745.38 329.30 740.25 334.97 733.98 C 335.03 747.98 334.99 761.99 334.99 775.99 C 334.53 788.03 338.70 800.28 346.64 809.38 C 355.64 819.63 369.42 825.32 382.99 825.01 C 468.66 825.00 554.33 824.99 639.99 825.01 C 652.02 825.48 664.30 821.30 673.38 813.34 C 682.21 805.73 687.31 794.51 688.85 783.10 C 689.44 767.49 688.40 751.83 689.40 736.25 C 691.85 740.79 696.53 743.34 699.73 747.25 C 703.14 751.51 707.39 755.04 710.48 759.56 C 719.15 770.93 724.13 784.40 729.85 797.36 C 734.16 793.11 738.78 789.01 741.93 783.78 C 746.08 777.19 748.37 769.50 753.41 763.47 C 757.08 758.39 761.87 754.11 767.51 751.34 C 772.28 748.76 777.70 747.73 782.54 745.29 C 789.34 742.04 794.62 736.48 799.91 731.25 C 792.52 727.60 784.74 724.83 777.36 721.18 C 771.14 717.99 764.54 715.36 759.05 710.93 C 756.68 708.63 754.49 706.15 751.85 704.16 C 744.28 698.06 738.42 690.26 731.57 683.43 C 716.78 667.10 702.80 650.02 689.65 632.33 C 688.67 631.14 689.11 629.47 688.98 628.08 C 689.10 548.79 688.84 469.49 689.11 390.21 C 693.49 383.09 699.17 376.81 704.05 370.02 C 699.22 364.80 693.94 360.03 689.05 354.88 C 688.97 346.30 688.93 337.72 689.09 329.15 C 698.00 338.11 706.93 347.06 715.89 355.98 C 720.16 350.86 724.46 345.73 729.10 340.93 C 718.86 330.17 708.08 319.94 697.71 309.31 C 694.82 306.24 691.18 303.69 689.12 299.96 C 688.80 280.95 689.15 261.93 688.95 242.91 C 687.95 228.36 680.17 214.09 667.63 206.34 C 659.69 201.49 650.35 198.69 641.01 198.99 C 555.34 199.01 469.68 199.00 384.01 198.99 C 372.93 198.55 361.64 202.06 352.83 208.81 M 275.10 245.05 C 271.39 253.94 265.47 262.01 257.60 267.63 C 251.37 272.17 243.47 273.23 236.84 277.00 C 230.69 280.24 226.07 285.56 221.00 290.19 C 236.49 297.00 252.85 302.85 265.86 314.07 C 270.49 318.53 275.31 322.81 279.55 327.67 C 295.32 311.64 311.37 295.89 327.18 279.89 C 323.29 275.80 318.88 272.19 315.41 267.70 C 310.05 261.58 305.76 254.62 301.43 247.74 C 297.54 239.96 295.03 231.57 291.14 223.77 C 284.60 229.84 278.67 236.78 275.10 245.05 M 714.26 256.22 C 708.84 265.19 701.37 272.63 693.92 279.91 C 709.68 295.90 725.69 311.66 741.48 327.64 C 748.56 320.29 755.54 312.57 764.43 307.36 C 775.36 299.85 788.09 295.72 800.06 290.22 C 796.54 286.56 792.94 282.94 788.77 280.01 C 782.53 276.46 776.01 273.45 769.33 270.83 C 764.30 268.89 760.16 265.34 756.56 261.43 C 751.35 256.37 748.15 249.78 745.15 243.29 C 741.68 235.68 735.97 229.44 729.92 223.80 C 724.97 234.73 720.85 246.11 714.26 256.22 M 90.37 626.46 C 84.90 628.79 84.52 635.89 84.67 641.02 C 86.53 658.46 95.93 673.99 106.30 687.72 C 122.72 709.69 143.96 727.98 168.03 741.12 C 175.90 745.78 184.18 749.84 191.38 755.54 C 197.58 759.99 202.71 765.75 207.14 771.92 C 212.22 778.55 214.36 786.92 219.43 793.55 C 223.42 797.94 227.66 802.59 233.56 804.30 C 241.80 807.01 249.92 810.67 256.40 816.57 C 261.56 821.41 266.51 826.48 271.42 831.58 C 274.54 834.81 277.98 837.73 280.74 841.29 C 284.17 845.83 288.66 849.40 292.24 853.81 C 294.90 857.12 297.96 860.07 300.89 863.14 C 316.54 881.08 333.42 897.92 350.50 914.51 C 358.28 921.14 365.69 928.36 374.49 933.68 C 378.31 935.73 382.34 938.24 386.88 937.66 C 389.40 937.60 390.93 935.20 392.37 933.45 C 395.87 926.06 393.74 917.62 391.68 910.14 C 385.80 892.81 374.94 877.67 362.92 864.06 C 352.51 852.79 341.35 842.10 328.65 833.41 C 315.38 824.02 300.29 817.55 287.23 807.84 C 278.49 800.40 270.33 791.81 265.75 781.12 C 261.96 772.11 255.79 763.21 246.32 759.60 C 239.98 757.21 233.33 755.26 227.84 751.12 C 219.57 745.55 213.18 737.79 206.08 730.89 C 194.51 718.45 183.26 705.71 171.63 693.33 C 166.26 686.43 159.45 680.86 153.97 674.05 C 147.06 666.98 140.19 659.83 132.69 653.36 C 123.83 644.78 114.62 636.43 104.21 629.75 C 100.13 627.41 95.12 624.64 90.37 626.46 M 923.42 626.65 C 918.11 628.44 913.54 631.83 909.05 635.09 C 900.55 641.86 892.45 649.13 884.86 656.91 C 864.66 676.07 846.06 696.79 827.41 717.40 C 822.55 721.90 818.80 727.44 813.92 731.91 C 806.09 739.70 798.79 748.30 789.04 753.79 C 783.88 756.77 777.98 758.02 772.63 760.57 C 765.09 764.44 759.80 771.56 756.29 779.11 C 751.26 790.81 743.05 801.14 732.77 808.66 C 723.09 815.70 712.24 820.89 702.10 827.21 C 691.45 833.47 681.61 841.05 672.56 849.44 C 656.67 864.55 641.91 881.52 632.73 901.64 C 628.87 910.69 625.43 920.75 627.56 930.66 C 628.54 933.97 631.15 937.82 635.02 937.67 C 640.20 937.90 644.69 934.71 648.96 932.18 C 665.34 921.14 678.55 906.32 692.63 892.63 C 699.03 886.03 705.80 879.78 711.61 872.64 C 715.45 868.80 719.17 864.84 722.62 860.65 C 728.26 855.24 732.74 848.78 738.54 843.52 C 742.19 839.19 746.03 835.03 750.01 831.00 C 757.94 823.25 765.22 814.45 775.25 809.30 C 780.17 806.40 785.90 805.44 790.98 802.92 C 794.44 801.27 797.02 798.35 799.67 795.67 C 805.00 790.51 807.18 783.20 810.78 776.90 C 814.09 771.36 818.09 766.24 822.59 761.62 C 832.07 752.16 844.30 746.39 855.71 739.68 C 874.47 728.92 891.64 715.24 905.62 698.69 C 913.27 690.42 920.03 681.34 925.64 671.56 C 931.09 661.82 935.69 651.26 936.48 640.00 C 936.59 636.24 936.05 632.29 934.05 629.04 C 931.66 625.74 927.00 625.16 923.42 626.65 M 188.90 766.89 C 185.92 778.26 186.00 790.60 190.70 801.51 C 195.87 814.89 206.86 825.75 220.27 830.82 C 231.95 835.56 245.10 835.37 257.01 831.59 C 253.03 828.03 249.57 823.86 245.01 821.01 C 237.57 815.67 227.88 814.89 220.57 809.33 C 216.14 806.50 212.90 802.29 209.77 798.16 C 204.95 791.69 202.91 783.63 197.98 777.24 C 195.14 773.62 192.05 770.22 188.90 766.89 M 817.71 786.49 C 813.31 796.30 807.04 805.90 797.47 811.30 C 791.71 814.79 784.89 815.80 779.06 819.13 C 773.29 822.30 768.83 827.22 764.01 831.59 C 777.43 835.85 792.53 835.47 805.17 828.95 C 819.48 821.93 830.15 808.06 833.18 792.40 C 835.13 783.98 834.35 775.24 832.18 766.95 C 826.46 772.72 821.00 778.97 817.71 786.49 Z" />
<path fill="#ffffff" opacity="1.00" d=" M 236.28 226.08 C 245.49 223.43 255.13 232.65 253.08 241.94 C 252.04 249.69 243.57 255.13 236.08 253.01 C 228.80 251.54 224.14 243.32 225.98 236.27 C 227.15 231.29 231.30 227.20 236.28 226.08 Z" />
<path fill="#ffffff" opacity="1.00" d=" M 776.50 226.71 C 783.55 223.68 792.67 227.79 794.80 235.22 C 797.15 241.93 793.39 250.17 786.58 252.46 C 779.42 255.54 770.36 250.99 768.38 243.50 C 766.27 236.90 770.02 229.16 776.50 226.71 Z" />
<path fill="#ffffff" opacity="1.00" d=" M 608.52 228.62 C 614.51 225.67 622.63 228.93 624.53 235.42 C 627.52 242.74 620.78 251.60 612.96 250.87 C 606.14 250.75 600.52 243.79 602.05 237.07 C 602.68 233.45 605.16 230.15 608.52 228.62 Z" />
<path fill="#ffffff" opacity="1.00" d=" M 451.04 231.87 C 491.66 231.81 532.28 231.82 572.90 231.86 C 573.25 236.32 573.09 240.81 573.08 245.29 C 532.42 245.38 491.76 245.32 451.09 245.31 C 450.83 240.84 450.81 236.34 451.04 231.87 Z" />
<path fill="#ffffff" opacity="1.00" d=" M 369.19 275.95 C 464.41 275.84 559.63 275.85 654.85 275.94 C 654.93 419.37 654.91 562.79 654.86 706.22 C 559.62 706.29 464.39 706.23 369.15 706.24 C 369.11 562.81 369.04 419.38 369.19 275.95 Z" />
<path fill="#ffffff" opacity="1.00" d=" M 456.36 742.20 C 493.44 742.12 530.52 742.10 567.60 742.21 C 567.75 753.52 567.56 764.84 567.70 776.16 C 553.82 776.77 539.90 776.24 526.00 776.42 C 502.77 776.31 479.53 776.63 456.31 776.26 C 456.35 764.90 456.26 753.55 456.36 742.20 Z" />
<path fill="#ffffff" opacity="1.00" d=" M 235.39 768.52 C 240.58 767.10 246.72 768.46 250.06 772.91 C 255.71 779.15 253.56 790.30 245.98 793.98 C 239.22 797.83 229.59 794.62 226.75 787.32 C 223.28 780.09 227.72 770.66 235.39 768.52 Z" />
<path fill="#ffffff" opacity="1.00" d=" M 777.44 768.59 C 786.02 765.45 796.03 772.86 795.48 782.00 C 795.78 791.17 785.49 798.18 777.02 794.84 C 769.52 792.40 765.67 783.12 769.01 776.03 C 770.60 772.54 773.73 769.66 777.44 768.59 Z" />
</g>
<g id="#000000ff">
<path fill="#000000" opacity="1.00" d=" M 380.56 84.62 C 384.22 83.03 388.85 82.99 391.48 86.42 C 395.33 91.98 394.43 99.26 393.18 105.53 C 388.71 124.83 376.62 141.16 364.09 156.07 C 357.53 162.85 350.81 169.49 344.06 176.08 C 334.32 184.26 323.86 191.58 312.77 197.81 C 303.40 203.30 293.65 208.27 285.14 215.10 C 279.37 220.38 273.80 226.01 269.71 232.73 C 265.98 239.07 263.56 246.18 258.97 252.01 C 256.42 254.81 253.77 257.61 250.56 259.65 C 246.62 262.03 242.11 263.17 237.86 264.84 C 226.76 269.08 218.37 277.90 210.15 286.12 C 204.39 293.31 197.33 299.28 191.50 306.40 C 183.72 314.63 176.25 323.13 168.62 331.49 C 164.05 335.92 159.98 340.83 155.64 345.49 C 148.05 352.95 140.61 360.56 132.98 367.98 C 123.42 376.43 114.36 385.69 103.23 392.11 C 99.12 394.16 94.02 397.36 89.56 394.41 C 85.18 392.05 84.71 386.44 84.61 382.02 C 85.14 370.18 90.13 359.07 95.95 348.94 C 104.21 334.76 114.98 322.18 126.82 310.87 C 136.11 301.25 146.74 292.95 158.21 286.08 C 169.56 278.72 182.02 273.13 192.76 264.83 C 200.82 257.85 208.23 249.75 212.60 239.90 C 215.74 232.80 219.85 225.93 226.00 221.03 C 230.99 217.00 237.52 216.05 243.19 213.36 C 254.04 208.56 262.23 199.65 270.35 191.29 C 274.40 186.37 279.07 182.02 283.35 177.30 C 287.86 171.57 293.47 166.84 297.99 161.10 C 303.46 155.51 308.23 149.30 313.94 143.95 C 321.90 134.22 331.31 125.84 340.01 116.80 C 345.16 111.32 351.32 106.94 356.46 101.46 C 364.12 95.38 371.37 88.33 380.56 84.62 M 236.28 226.08 C 231.30 227.20 227.15 231.29 225.98 236.27 C 224.14 243.32 228.80 251.54 236.08 253.01 C 243.57 255.13 252.04 249.69 253.08 241.94 C 255.13 232.65 245.49 223.43 236.28 226.08 Z" />
<path fill="#000000" opacity="1.00" d=" M 633.25 83.96 C 638.91 82.45 644.22 86.50 648.95 89.14 C 667.10 101.98 682.29 118.38 698.06 133.94 C 711.73 148.92 725.75 163.58 739.06 178.88 C 743.42 183.20 747.73 187.59 751.94 192.08 C 760.83 202.51 771.62 212.18 785.07 216.04 C 794.51 218.70 801.94 226.26 806.04 234.98 C 811.08 247.47 819.83 258.36 830.51 266.50 C 845.64 276.96 862.67 284.47 877.22 295.84 C 888.45 304.12 897.97 314.38 907.57 324.45 C 918.21 337.71 928.76 351.64 933.87 368.11 C 935.88 375.00 937.79 382.54 935.34 389.57 C 934.03 393.69 929.31 396.90 925.03 395.18 C 915.30 392.29 907.82 385.03 900.06 378.87 C 884.86 365.14 869.96 350.97 856.43 335.57 C 850.79 330.45 846.30 324.28 840.96 318.87 C 836.51 313.10 830.84 308.43 826.37 302.69 C 813.49 289.58 802.07 274.29 785.64 265.38 C 778.91 263.35 771.74 261.47 766.46 256.55 C 761.12 251.94 757.62 245.64 754.91 239.21 C 750.71 229.70 743.44 222.02 735.84 215.11 C 729.10 209.62 721.58 205.19 713.96 201.05 C 698.61 192.69 683.86 182.95 671.39 170.63 C 660.46 160.09 650.01 148.90 641.80 136.07 C 634.20 124.32 627.52 111.21 626.83 96.98 C 626.93 92.14 627.91 85.71 633.25 83.96 M 776.50 226.71 C 770.02 229.16 766.27 236.90 768.38 243.50 C 770.36 250.99 779.42 255.54 786.58 252.46 C 793.39 250.17 797.15 241.93 794.80 235.22 C 792.67 227.79 783.55 223.68 776.50 226.71 Z" />
<path fill="#000000" opacity="1.00" d=" M 191.05 218.84 C 198.50 201.00 216.57 188.03 235.93 187.10 C 243.11 186.45 250.33 187.71 257.16 189.91 C 250.94 195.27 245.17 201.63 237.22 204.43 C 231.14 206.60 224.82 208.57 219.71 212.69 C 214.98 216.69 210.64 221.25 207.48 226.61 C 205.10 230.37 203.62 234.59 201.53 238.51 C 198.39 244.52 193.83 249.66 188.81 254.18 C 185.69 242.54 186.23 229.94 191.05 218.84 Z" />
<path fill="#000000" opacity="1.00" d=" M 764.04 189.82 C 782.63 183.40 805.06 187.78 818.61 202.40 C 825.52 208.64 830.49 217.17 832.13 226.36 C 833.27 231.15 834.70 236.01 834.33 240.99 C 833.97 245.48 833.28 249.93 832.28 254.32 C 829.07 251.94 827.53 248.19 824.91 245.28 C 821.16 240.21 817.63 234.93 814.97 229.19 C 809.68 219.54 801.72 210.54 790.96 207.06 C 783.49 204.58 775.87 201.42 770.37 195.58 C 768.37 193.54 766.27 191.59 764.04 189.82 Z" />
<path fill="#000000" opacity="1.00" d=" M 352.83 208.81 C 361.64 202.06 372.93 198.55 384.01 198.99 C 469.68 199.00 555.34 199.01 641.01 198.99 C 650.35 198.69 659.69 201.49 667.63 206.34 C 680.17 214.09 687.95 228.36 688.95 242.91 C 689.15 261.93 688.80 280.95 689.12 299.96 C 691.18 303.69 694.82 306.24 697.71 309.31 C 708.08 319.94 718.86 330.17 729.10 340.93 C 724.46 345.73 720.16 350.86 715.89 355.98 C 706.93 347.06 698.00 338.11 689.09 329.15 C 688.93 337.72 688.97 346.30 689.05 354.88 C 693.94 360.03 699.22 364.80 704.05 370.02 C 699.17 376.81 693.49 383.09 689.11 390.21 C 688.84 469.49 689.10 548.79 688.98 628.08 C 689.11 629.47 688.67 631.14 689.65 632.33 C 702.80 650.02 716.78 667.10 731.57 683.43 C 738.42 690.26 744.28 698.06 751.85 704.16 C 754.49 706.15 756.68 708.63 759.05 710.93 C 764.54 715.36 771.14 717.99 777.36 721.18 C 784.74 724.83 792.52 727.60 799.91 731.25 C 794.62 736.48 789.34 742.04 782.54 745.29 C 777.70 747.73 772.28 748.76 767.51 751.34 C 761.87 754.11 757.08 758.39 753.41 763.47 C 748.37 769.50 746.08 777.19 741.93 783.78 C 738.78 789.01 734.16 793.11 729.85 797.36 C 724.13 784.40 719.15 770.93 710.48 759.56 C 707.39 755.04 703.14 751.51 699.73 747.25 C 696.53 743.34 691.85 740.79 689.40 736.25 C 688.40 751.83 689.44 767.49 688.85 783.10 C 687.31 794.51 682.21 805.73 673.38 813.34 C 664.30 821.30 652.02 825.48 639.99 825.01 C 554.33 824.99 468.66 825.00 382.99 825.01 C 369.42 825.32 355.64 819.63 346.64 809.38 C 338.70 800.28 334.53 788.03 334.99 775.99 C 334.99 761.99 335.03 747.98 334.97 733.98 C 329.30 740.25 322.49 745.38 317.07 751.89 C 304.67 764.62 297.91 781.37 291.27 797.54 C 285.31 791.71 279.24 785.69 275.90 777.90 C 271.77 768.23 265.78 758.91 256.77 753.15 C 251.93 749.71 246.06 748.40 240.63 746.24 C 233.02 742.89 226.83 737.13 221.13 731.21 C 230.72 726.75 240.61 722.94 250.07 718.20 C 255.85 716.45 259.79 711.67 265.05 708.99 C 272.22 702.19 278.84 694.81 286.03 688.03 C 289.09 683.56 292.94 679.75 296.39 675.60 C 304.61 667.32 311.14 657.60 318.88 648.90 C 323.53 642.56 328.57 636.51 333.14 630.10 C 333.96 628.85 335.12 627.63 334.98 626.02 C 335.03 549.33 334.98 472.65 335.01 395.96 C 335.11 394.81 334.86 393.77 334.24 392.82 C 328.63 385.10 322.77 377.55 316.95 369.99 C 322.86 363.83 329.05 357.95 334.98 351.82 C 334.98 343.26 335.08 334.69 334.92 326.13 C 325.16 336.16 315.17 345.95 305.29 355.86 C 300.79 350.91 296.71 345.61 291.94 340.92 C 305.47 327.14 319.24 313.60 332.85 299.91 C 333.86 298.83 335.17 297.73 334.97 296.08 C 335.09 278.36 334.89 260.63 335.06 242.91 C 336.02 229.80 342.24 216.84 352.83 208.81 M 608.52 228.62 C 605.16 230.15 602.68 233.45 602.05 237.07 C 600.52 243.79 606.14 250.75 612.96 250.87 C 620.78 251.60 627.52 242.74 624.53 235.42 C 622.63 228.93 614.51 225.67 608.52 228.62 M 451.04 231.87 C 450.81 236.34 450.83 240.84 451.09 245.31 C 491.76 245.32 532.42 245.38 573.08 245.29 C 573.09 240.81 573.25 236.32 572.90 231.86 C 532.28 231.82 491.66 231.81 451.04 231.87 M 369.19 275.95 C 369.04 419.38 369.11 562.81 369.15 706.24 C 464.39 706.23 559.62 706.29 654.86 706.22 C 654.91 562.79 654.93 419.37 654.85 275.94 C 559.63 275.85 464.41 275.84 369.19 275.95 M 456.36 742.20 C 456.26 753.55 456.35 764.90 456.31 776.26 C 479.53 776.63 502.77 776.31 526.00 776.42 C 539.90 776.24 553.82 776.77 567.70 776.16 C 567.56 764.84 567.75 753.52 567.60 742.21 C 530.52 742.10 493.44 742.12 456.36 742.20 Z" />
<path fill="#000000" opacity="1.00" d=" M 275.10 245.05 C 278.67 236.78 284.60 229.84 291.14 223.77 C 295.03 231.57 297.54 239.96 301.43 247.74 C 305.76 254.62 310.05 261.58 315.41 267.70 C 318.88 272.19 323.29 275.80 327.18 279.89 C 311.37 295.89 295.32 311.64 279.55 327.67 C 275.31 322.81 270.49 318.53 265.86 314.07 C 252.85 302.85 236.49 297.00 221.00 290.19 C 226.07 285.56 230.69 280.24 236.84 277.00 C 243.47 273.23 251.37 272.17 257.60 267.63 C 265.47 262.01 271.39 253.94 275.10 245.05 Z" />
<path fill="#000000" opacity="1.00" d=" M 714.26 256.22 C 720.85 246.11 724.97 234.73 729.92 223.80 C 735.97 229.44 741.68 235.68 745.15 243.29 C 748.15 249.78 751.35 256.37 756.56 261.43 C 760.16 265.34 764.30 268.89 769.33 270.83 C 776.01 273.45 782.53 276.46 788.77 280.01 C 792.94 282.94 796.54 286.56 800.06 290.22 C 788.09 295.72 775.36 299.85 764.43 307.36 C 755.54 312.57 748.56 320.29 741.48 327.64 C 725.69 311.66 709.68 295.90 693.92 279.91 C 701.37 272.63 708.84 265.19 714.26 256.22 Z" />
<path fill="#000000" opacity="1.00" d=" M 90.37 626.46 C 95.12 624.64 100.13 627.41 104.21 629.75 C 114.62 636.43 123.83 644.78 132.69 653.36 C 140.19 659.83 147.06 666.98 153.97 674.05 C 159.45 680.86 166.26 686.43 171.63 693.33 C 183.26 705.71 194.51 718.45 206.08 730.89 C 213.18 737.79 219.57 745.55 227.84 751.12 C 233.33 755.26 239.98 757.21 246.32 759.60 C 255.79 763.21 261.96 772.11 265.75 781.12 C 270.33 791.81 278.49 800.40 287.23 807.84 C 300.29 817.55 315.38 824.02 328.65 833.41 C 341.35 842.10 352.51 852.79 362.92 864.06 C 374.94 877.67 385.80 892.81 391.68 910.14 C 393.74 917.62 395.87 926.06 392.37 933.45 C 390.93 935.20 389.40 937.60 386.88 937.66 C 382.34 938.24 378.31 935.73 374.49 933.68 C 365.69 928.36 358.28 921.14 350.50 914.51 C 333.42 897.92 316.54 881.08 300.89 863.14 C 297.96 860.07 294.90 857.12 292.24 853.81 C 288.66 849.40 284.17 845.83 280.74 841.29 C 277.98 837.73 274.54 834.81 271.42 831.58 C 266.51 826.48 261.56 821.41 256.40 816.57 C 249.92 810.67 241.80 807.01 233.56 804.30 C 227.66 802.59 223.42 797.94 219.43 793.55 C 214.36 786.92 212.22 778.55 207.14 771.92 C 202.71 765.75 197.58 759.99 191.38 755.54 C 184.18 749.84 175.90 745.78 168.03 741.12 C 143.96 727.98 122.72 709.69 106.30 687.72 C 95.93 673.99 86.53 658.46 84.67 641.02 C 84.52 635.89 84.90 628.79 90.37 626.46 M 235.39 768.52 C 227.72 770.66 223.28 780.09 226.75 787.32 C 229.59 794.62 239.22 797.83 245.98 793.98 C 253.56 790.30 255.71 779.15 250.06 772.91 C 246.72 768.46 240.58 767.10 235.39 768.52 Z" />
<path fill="#000000" opacity="1.00" d=" M 923.42 626.65 C 927.00 625.16 931.66 625.74 934.05 629.04 C 936.05 632.29 936.59 636.24 936.48 640.00 C 935.69 651.26 931.09 661.82 925.64 671.56 C 920.03 681.34 913.27 690.42 905.62 698.69 C 891.64 715.24 874.47 728.92 855.71 739.68 C 844.30 746.39 832.07 752.16 822.59 761.62 C 818.09 766.24 814.09 771.36 810.78 776.90 C 807.18 783.20 805.00 790.51 799.67 795.67 C 797.02 798.35 794.44 801.27 790.98 802.92 C 785.90 805.44 780.17 806.40 775.25 809.30 C 765.22 814.45 757.94 823.25 750.01 831.00 C 746.03 835.03 742.19 839.19 738.54 843.52 C 732.74 848.78 728.26 855.24 722.62 860.65 C 719.17 864.84 715.45 868.80 711.61 872.64 C 705.80 879.78 699.03 886.03 692.63 892.63 C 678.55 906.32 665.34 921.14 648.96 932.18 C 644.69 934.71 640.20 937.90 635.02 937.67 C 631.15 937.82 628.54 933.97 627.56 930.66 C 625.43 920.75 628.87 910.69 632.73 901.64 C 641.91 881.52 656.67 864.55 672.56 849.44 C 681.61 841.05 691.45 833.47 702.10 827.21 C 712.24 820.89 723.09 815.70 732.77 808.66 C 743.05 801.14 751.26 790.81 756.29 779.11 C 759.80 771.56 765.09 764.44 772.63 760.57 C 777.98 758.02 783.88 756.77 789.04 753.79 C 798.79 748.30 806.09 739.70 813.92 731.91 C 818.80 727.44 822.55 721.90 827.41 717.40 C 846.06 696.79 864.66 676.07 884.86 656.91 C 892.45 649.13 900.55 641.86 909.05 635.09 C 913.54 631.83 918.11 628.44 923.42 626.65 M 777.44 768.59 C 773.73 769.66 770.60 772.54 769.01 776.03 C 765.67 783.12 769.52 792.40 777.02 794.84 C 785.49 798.18 795.78 791.17 795.48 782.00 C 796.03 772.86 786.02 765.45 777.44 768.59 Z" />
<path fill="#000000" opacity="1.00" d=" M 188.90 766.89 C 192.05 770.22 195.14 773.62 197.98 777.24 C 202.91 783.63 204.95 791.69 209.77 798.16 C 212.90 802.29 216.14 806.50 220.57 809.33 C 227.88 814.89 237.57 815.67 245.01 821.01 C 249.57 823.86 253.03 828.03 257.01 831.59 C 245.10 835.37 231.95 835.56 220.27 830.82 C 206.86 825.75 195.87 814.89 190.70 801.51 C 186.00 790.60 185.92 778.26 188.90 766.89 Z" />
<path fill="#000000" opacity="1.00" d=" M 817.71 786.49 C 821.00 778.97 826.46 772.72 832.18 766.95 C 834.35 775.24 835.13 783.98 833.18 792.40 C 830.15 808.06 819.48 821.93 805.17 828.95 C 792.53 835.47 777.43 835.85 764.01 831.59 C 768.83 827.22 773.29 822.30 779.06 819.13 C 784.89 815.80 791.71 814.79 797.47 811.30 C 807.04 805.90 813.31 796.30 817.71 786.49 Z" />
</g>
</svg>
