<?xml version="1.0" standalone="no"?>
<!DOCTYPE svg PUBLIC "-//W3C//DTD SVG 20010904//EN"
 "http://www.w3.org/TR/2001/REC-SVG-20010904/DTD/svg10.dtd">
<svg version="1.0" xmlns="http://www.w3.org/2000/svg"
 width="2000.000000pt" height="2000.000000pt" viewBox="0 0 2000.000000 2000.000000"
 preserveAspectRatio="xMidYMid meet">
<metadata>
Created by potrace 1.15, written by Peter Selinger 2001-2017
</metadata>
<g transform="translate(0.000000,2000.000000) scale(0.100000,-0.100000)"
fill="#000000" stroke="none">
<path d="M9805 19611 c-16 -4 -29 -12 -27 -19 1 -7 -2 -13 -8 -13 -5 -1 -14
-3 -20 -4 -5 -1 -15 -3 -21 -4 -5 0 -7 -5 -4 -11 4 -6 -5 -10 -19 -10 -14 0
-26 -5 -26 -11 0 -14 -47 -59 -61 -59 -6 0 -8 -4 -5 -8 3 -5 -4 -18 -14 -30
-11 -12 -20 -27 -20 -34 0 -7 -9 -19 -20 -26 -11 -7 -20 -23 -20 -36 0 -13 -7
-29 -15 -36 -13 -11 -15 -89 -15 -592 0 -338 -4 -577 -9 -574 -13 8 -21 -19
-21 -69 0 -26 -6 -47 -15 -55 -8 -7 -15 -21 -15 -31 0 -11 -3 -19 -7 -19 -5 0
-23 -23 -42 -50 -19 -28 -40 -50 -48 -50 -7 0 -12 -5 -11 -12 2 -6 -6 -14 -17
-16 -11 -2 -24 -10 -28 -18 -4 -8 -21 -14 -37 -14 -17 0 -30 -4 -30 -10 0 -6
-36 -10 -87 -10 -212 0 -431 -13 -427 -25 7 -16 -40 -25 -127 -25 -39 0 -69
-4 -69 -10 0 -6 -30 -10 -71 -10 -64 0 -70 -2 -58 -16 11 -14 3 -15 -84 -13
-53 2 -100 0 -103 -4 -4 -4 -1 -13 6 -22 11 -13 1 -15 -84 -15 -71 0 -95 -3
-94 -12 2 -10 -19 -13 -80 -13 -71 0 -82 -2 -82 -17 0 -17 -26 -23 -87 -21 -7
1 -13 -3 -13 -8 0 -5 -10 -9 -22 -9 -29 0 -53 -15 -53 -32 0 -9 -18 -14 -54
-16 -33 -2 -59 -9 -65 -18 -8 -9 -25 -13 -53 -10 -32 2 -49 -2 -65 -15 -11
-11 -36 -19 -55 -19 -18 0 -33 -4 -33 -10 0 -5 -9 -10 -20 -10 -11 0 -25 -9
-32 -20 -10 -16 -24 -20 -65 -20 -37 0 -52 -4 -50 -12 1 -9 -13 -14 -40 -16
-23 -2 -47 -10 -53 -18 -7 -7 -29 -14 -49 -14 -33 0 -94 -29 -92 -44 3 -22 -4
-26 -44 -26 -31 0 -44 -4 -42 -12 1 -9 -13 -13 -46 -13 -38 0 -47 -3 -47 -17
0 -12 -8 -18 -24 -18 -33 0 -84 -30 -90 -54 -4 -15 -11 -17 -43 -12 -21 4 -48
7 -61 7 -15 1 -22 6 -18 14 3 10 -6 15 -32 17 -23 2 -36 8 -34 16 1 7 -11 15
-27 18 -16 4 -34 17 -42 30 -7 13 -18 24 -24 24 -15 0 -51 42 -59 68 -4 11
-13 23 -21 26 -8 3 -15 17 -15 31 0 14 -7 28 -15 31 -8 4 -15 15 -15 25 0 11
-9 27 -19 36 -11 9 -17 23 -13 31 3 10 1 13 -6 8 -13 -8 -34 32 -25 47 2 4 -3
10 -11 13 -9 3 -16 12 -16 19 0 17 -51 95 -62 95 -4 0 -8 11 -8 25 0 14 -5 24
-12 22 -7 -1 -14 9 -16 23 -2 14 -9 30 -16 35 -7 6 -16 22 -20 38 -3 15 -11
27 -16 27 -6 0 -10 8 -10 18 0 9 -9 23 -20 30 -11 7 -20 19 -20 27 0 8 -4 15
-10 15 -5 0 -10 9 -10 20 0 11 -9 29 -20 40 -11 11 -20 29 -20 40 0 11 -7 23
-15 26 -8 4 -15 14 -15 24 0 10 -7 20 -15 24 -8 3 -15 17 -15 31 0 16 -6 25
-15 25 -8 0 -15 8 -15 18 0 20 -55 82 -73 82 -7 0 -6 4 3 10 13 8 13 10 -2 10
-10 0 -26 9 -37 21 -11 12 -24 18 -29 15 -16 -10 -41 4 -35 20 3 8 2 14 -3 13
-27 -5 -54 3 -54 15 0 22 -38 27 -196 25 -129 -1 -148 -3 -165 -20 -10 -10
-30 -19 -44 -19 -17 0 -23 -4 -19 -14 4 -10 -5 -16 -25 -21 -17 -4 -31 -10
-31 -15 0 -4 -11 -11 -25 -14 -14 -4 -23 -10 -21 -15 3 -5 -6 -21 -19 -35 -14
-15 -25 -31 -25 -37 0 -5 -6 -9 -14 -9 -18 0 -56 -60 -56 -89 0 -12 -4 -20 -9
-17 -5 3 -12 -1 -15 -10 -9 -23 -5 -355 4 -384 4 -14 8 -19 9 -12 2 24 21 2
21 -24 0 -14 7 -27 15 -30 8 -4 15 -15 15 -25 0 -10 7 -19 15 -19 8 0 14 -3
14 -7 -3 -21 2 -53 9 -52 24 4 32 -4 32 -32 0 -17 4 -28 10 -24 6 4 10 -7 10
-24 0 -21 5 -31 15 -31 14 0 20 -12 16 -33 -1 -5 8 -11 19 -14 14 -4 20 -14
20 -34 0 -19 5 -29 15 -29 8 0 15 -9 15 -19 0 -11 7 -26 15 -35 8 -8 15 -19
15 -24 0 -5 7 -15 15 -22 8 -7 15 -21 15 -31 0 -10 9 -23 20 -29 12 -6 20 -21
20 -35 0 -16 6 -25 15 -25 10 0 15 -10 15 -30 0 -19 5 -29 13 -27 7 1 12 -8
11 -20 0 -13 5 -23 13 -23 7 0 16 -13 20 -30 3 -16 12 -30 19 -30 8 0 14 -9
14 -20 0 -34 1 -35 21 -42 11 -4 19 -16 18 -25 0 -10 -1 -25 0 -33 1 -13 2
-13 11 0 8 12 10 9 10 -13 0 -16 7 -35 15 -43 12 -12 15 -44 15 -148 l0 -133
-34 -37 c-19 -20 -42 -36 -50 -36 -10 0 -13 -6 -9 -17 5 -14 1 -15 -30 -10
-34 5 -36 4 -27 -14 9 -16 7 -19 -9 -19 -10 0 -21 -7 -25 -15 -3 -8 -12 -15
-21 -15 -8 0 -15 -8 -15 -17 0 -9 -3 -14 -6 -10 -3 3 -17 -5 -31 -19 -14 -14
-31 -23 -39 -20 -8 3 -11 0 -7 -9 3 -9 -3 -18 -13 -22 -11 -4 -24 -12 -30 -17
-7 -6 -29 -24 -50 -41 -21 -16 -45 -37 -55 -47 -9 -9 -25 -18 -36 -20 -10 -2
-17 -10 -16 -16 2 -7 -1 -12 -6 -12 -9 0 -60 -46 -64 -57 -1 -5 -12 -8 -23 -8
-14 1 -20 -4 -17 -13 3 -8 -3 -15 -15 -19 -11 -2 -22 -13 -25 -24 -3 -13 -11
-17 -21 -13 -12 5 -15 2 -10 -10 5 -12 0 -19 -15 -23 -11 -3 -18 -9 -15 -14 3
-5 1 -9 -4 -9 -13 0 -62 -47 -62 -60 0 -5 -7 -10 -15 -10 -17 0 -55 -35 -55
-50 0 -5 -7 -10 -15 -10 -8 0 -15 -7 -15 -15 0 -8 -9 -15 -20 -15 -11 0 -20
-7 -20 -15 0 -8 -4 -15 -10 -15 -5 0 -10 -7 -10 -15 0 -8 -4 -15 -10 -15 -5 0
-33 -22 -61 -50 -28 -27 -55 -50 -60 -50 -4 0 -6 -7 -3 -15 4 -9 0 -15 -10
-15 -9 0 -16 -7 -16 -15 0 -8 -6 -15 -12 -15 -15 0 -46 -32 -72 -72 -10 -15
-22 -25 -27 -22 -5 3 -12 -3 -16 -12 -8 -21 -40 -54 -52 -54 -5 0 -11 -9 -14
-21 -3 -12 -10 -18 -17 -14 -7 4 -10 1 -9 -6 3 -16 -64 -89 -80 -89 -6 0 -11
-4 -11 -10 0 -10 -27 -45 -72 -91 -16 -15 -28 -35 -28 -43 0 -9 -7 -16 -16
-16 -8 0 -13 -4 -10 -9 3 -5 0 -14 -8 -20 -11 -9 -15 -9 -19 1 -3 7 -6 4 -6
-8 -1 -12 -14 -35 -31 -52 -17 -18 -30 -36 -30 -41 0 -4 -16 -23 -35 -42 -19
-19 -35 -42 -35 -52 0 -10 -7 -20 -15 -23 -8 -4 -15 -10 -15 -15 0 -6 -14 -23
-30 -39 -17 -16 -30 -32 -30 -35 0 -3 -8 -13 -17 -23 -23 -24 -77 -115 -75
-124 1 -5 -5 -8 -13 -8 -8 0 -15 -9 -15 -20 0 -12 -7 -20 -16 -20 -9 0 -22 -7
-28 -15 -8 -10 -34 -15 -84 -17 -59 -2 -75 -6 -83 -20 -13 -24 -25 -23 -32 3
-6 22 -32 22 -32 -1 0 -22 -22 -22 -28 0 -4 17 -13 20 -60 20 -40 0 -56 4 -61
15 -3 8 -17 15 -30 15 -18 0 -24 4 -20 14 4 10 -3 16 -23 18 -16 2 -27 8 -25
16 1 7 -9 12 -27 12 -16 0 -31 6 -35 15 -3 8 -15 15 -27 15 -13 0 -23 8 -26
21 -3 12 -11 18 -19 15 -17 -7 -46 3 -39 14 3 4 -9 10 -26 14 -21 4 -29 10
-26 20 4 10 -3 13 -26 12 -25 -1 -31 3 -29 17 2 12 -4 17 -21 17 -14 0 -30 6
-37 14 -6 8 -21 16 -33 18 -12 2 -21 9 -19 16 1 7 -9 12 -23 12 -14 0 -28 7
-31 15 -4 8 -16 15 -29 15 -14 0 -25 7 -28 20 -3 12 -14 20 -26 20 -12 0 -24
7 -27 15 -4 8 -17 15 -30 15 -15 0 -24 6 -24 16 0 11 -6 13 -20 9 -13 -4 -23
0 -32 14 -7 12 -20 21 -29 21 -9 0 -22 6 -29 14 -6 8 -21 16 -33 18 -14 2 -21
10 -21 20 1 10 -3 15 -8 12 -13 -8 -60 5 -53 15 10 17 -27 21 -171 21 -132 0
-146 -2 -161 -20 -10 -11 -27 -20 -39 -20 -12 0 -27 -7 -34 -15 -7 -8 -18 -15
-25 -15 -22 0 -141 -124 -149 -153 -6 -24 -9 -27 -22 -16 -13 11 -14 9 -9 -13
5 -19 0 -32 -19 -51 -26 -26 -26 -29 -26 -170 0 -172 7 -237 27 -237 7 0 16
-13 19 -30 4 -16 11 -27 16 -24 5 3 12 -3 15 -15 3 -12 9 -21 14 -21 5 0 9 -5
9 -11 0 -21 62 -89 81 -89 13 0 19 -6 17 -17 -2 -14 3 -17 25 -15 18 2 27 -1
27 -11 0 -8 13 -17 31 -21 17 -3 28 -10 24 -16 -4 -6 5 -10 20 -10 14 0 28 -6
31 -14 3 -8 19 -18 35 -21 16 -4 29 -11 29 -16 0 -5 9 -9 21 -9 12 0 23 -8 26
-20 4 -13 14 -20 29 -20 14 0 27 -7 30 -15 4 -8 17 -15 31 -15 19 0 23 -4 18
-19 -5 -16 -1 -19 27 -18 22 1 32 -2 30 -10 -1 -8 9 -13 28 -13 20 0 30 -5 30
-15 0 -8 11 -17 24 -21 14 -3 27 -12 30 -20 3 -8 17 -14 31 -14 14 0 25 -4 25
-8 0 -4 14 -13 31 -19 20 -8 28 -16 23 -24 -5 -8 1 -10 20 -7 19 4 29 0 37
-13 5 -11 16 -19 25 -19 8 0 17 -7 20 -15 4 -8 17 -15 30 -15 14 0 27 -7 30
-15 4 -8 14 -15 24 -15 10 0 23 -7 30 -15 7 -8 18 -15 25 -15 7 0 15 -9 18
-20 3 -11 12 -20 21 -20 9 0 16 -7 16 -15 0 -8 7 -15 16 -15 11 0 15 -6 11
-19 -3 -14 0 -17 14 -14 15 4 19 0 19 -21 0 -15 7 -29 15 -32 9 -4 15 -19 15
-40 0 -22 5 -34 14 -34 18 0 26 -31 26 -102 0 -47 -4 -60 -20 -70 -11 -7 -20
-20 -20 -29 0 -9 -7 -22 -15 -29 -8 -7 -15 -20 -15 -30 0 -10 -6 -23 -14 -29
-7 -6 -16 -34 -20 -62 -4 -28 -11 -47 -16 -44 -6 4 -10 -7 -10 -24 0 -18 -9
-40 -20 -51 -11 -11 -20 -27 -20 -35 0 -8 -7 -15 -15 -15 -10 0 -15 -10 -15
-34 0 -19 -4 -37 -9 -40 -5 -3 -12 -26 -15 -51 -4 -25 -13 -45 -19 -45 -7 0
-14 -12 -15 -27 -1 -15 -8 -31 -16 -35 -7 -4 -17 -28 -20 -53 -4 -25 -11 -43
-17 -40 -5 4 -9 -15 -9 -44 0 -28 -6 -55 -13 -63 -8 -7 -17 -30 -21 -51 -4
-20 -11 -37 -16 -37 -6 0 -10 -25 -10 -56 0 -47 -3 -57 -20 -61 -15 -4 -20
-14 -20 -42 0 -21 -7 -46 -15 -57 -8 -10 -15 -34 -15 -52 0 -20 -6 -35 -15
-38 -11 -4 -15 -21 -15 -58 0 -61 -9 -98 -21 -90 -5 3 -9 -27 -9 -65 0 -54 -3
-71 -14 -71 -17 0 -26 -31 -26 -98 0 -37 -4 -54 -15 -58 -10 -4 -15 -20 -15
-51 0 -27 -4 -42 -10 -38 -6 4 -10 -30 -10 -94 0 -98 -12 -157 -28 -147 -9 5
-22 -269 -22 -441 0 -49 -4 -83 -10 -83 -5 0 -10 -13 -10 -29 0 -16 -6 -31
-15 -35 -8 -3 -15 -11 -15 -19 0 -17 -90 -107 -107 -107 -7 0 -13 -7 -13 -15
0 -10 -10 -15 -30 -15 -19 0 -29 -5 -28 -12 2 -9 -16 -14 -59 -16 -49 -2 -61
-6 -56 -17 4 -13 -72 -15 -580 -15 -511 0 -586 -2 -591 -15 -3 -9 -19 -15 -41
-15 -28 0 -35 -4 -35 -20 0 -13 -7 -20 -19 -20 -10 0 -24 -7 -31 -15 -7 -8
-19 -15 -26 -15 -8 0 -14 -7 -14 -15 0 -8 -6 -15 -13 -15 -15 0 -67 -57 -67
-74 0 -6 -5 -4 -10 4 -7 12 -10 8 -10 -15 0 -18 -8 -38 -21 -48 -13 -12 -18
-24 -14 -37 4 -12 2 -20 -4 -20 -7 0 -11 -59 -11 -180 0 -109 4 -180 10 -180
5 0 7 -6 4 -14 -3 -8 4 -23 15 -33 12 -9 21 -26 21 -36 0 -10 13 -31 30 -47
16 -16 30 -34 30 -40 0 -5 7 -10 15 -10 9 0 18 -7 21 -15 4 -8 12 -15 20 -15
7 0 18 -9 24 -20 6 -11 20 -20 31 -20 11 0 22 -7 25 -15 4 -9 19 -15 40 -15
23 0 34 -5 34 -15 0 -13 74 -15 583 -17 459 -2 581 -6 579 -15 -1 -9 15 -13
57 -13 43 0 60 -4 65 -15 3 -8 15 -15 27 -15 12 0 23 -8 26 -20 3 -11 9 -18
13 -15 4 2 18 -4 30 -15 13 -11 27 -20 33 -20 5 0 7 -7 3 -15 -3 -8 -1 -15 5
-15 13 0 33 -20 42 -42 3 -10 11 -18 17 -18 5 0 10 -13 10 -30 0 -16 4 -30 9
-30 5 0 12 -112 16 -250 4 -142 11 -247 16 -244 18 11 29 -49 29 -152 0 -63 4
-104 10 -104 6 0 10 -14 10 -31 0 -17 5 -39 10 -50 7 -13 7 -19 0 -19 -6 0
-10 -24 -10 -55 0 -30 4 -55 8 -55 4 0 6 17 4 38 -2 28 -1 33 7 22 6 -8 11
-34 11 -57 0 -40 6 -48 33 -44 4 0 7 -35 7 -78 0 -62 3 -80 16 -85 12 -5 15
-21 13 -83 -2 -61 1 -78 12 -78 7 0 15 -9 17 -20 1 -11 7 -38 12 -60 5 -22 12
-54 15 -72 4 -19 14 -35 26 -38 15 -5 19 -16 19 -54 0 -30 6 -53 14 -61 10 -7
15 -30 14 -62 0 -37 5 -54 16 -60 9 -5 16 -20 16 -33 0 -13 5 -27 10 -30 6 -3
10 -19 10 -36 0 -18 7 -33 20 -41 16 -10 20 -24 20 -65 0 -42 3 -51 15 -47 8
4 15 2 16 -2 0 -5 2 -29 4 -54 2 -24 8 -46 14 -48 6 -2 11 -21 11 -43 0 -21 4
-39 8 -39 5 0 14 -11 20 -25 6 -14 18 -25 27 -25 11 0 15 -11 15 -45 0 -31 4
-44 13 -42 8 1 12 -14 13 -48 1 -40 4 -50 18 -49 9 1 16 -3 16 -9 0 -24 35
-87 52 -93 12 -3 18 -15 18 -34 0 -16 5 -32 10 -35 6 -3 10 -12 9 -18 0 -9 -2
-9 -6 1 -10 26 -24 11 -18 -21 5 -25 2 -37 -14 -51 -12 -11 -21 -27 -21 -36 0
-21 -36 -60 -56 -60 -8 0 -13 -3 -11 -7 10 -17 -13 -53 -33 -53 -12 0 -18 -5
-15 -10 4 -6 -7 -13 -24 -16 -16 -4 -32 -12 -35 -20 -3 -8 -15 -14 -26 -14
-11 0 -20 -4 -20 -9 0 -5 -14 -14 -30 -20 -17 -5 -30 -15 -30 -20 0 -6 -13
-11 -30 -11 -19 0 -28 -4 -25 -12 5 -14 -59 -48 -88 -48 -9 0 -17 -7 -17 -15
0 -8 -7 -15 -15 -15 -8 0 -24 -9 -35 -20 -11 -11 -29 -20 -40 -20 -12 0 -20
-7 -20 -16 0 -12 -7 -15 -29 -12 -21 3 -28 0 -27 -11 1 -9 -8 -17 -21 -19 -12
-2 -27 -10 -33 -18 -7 -8 -21 -14 -32 -14 -11 0 -22 -9 -25 -20 -3 -13 -14
-20 -28 -20 -13 0 -25 -7 -29 -15 -3 -8 -13 -15 -21 -15 -9 0 -23 -7 -31 -15
-9 -8 -24 -15 -34 -15 -10 0 -20 -7 -24 -15 -3 -8 -17 -15 -31 -15 -15 0 -24
-5 -22 -12 1 -8 -10 -14 -26 -16 -15 -2 -25 -8 -21 -13 3 -5 -8 -14 -25 -20
-17 -6 -31 -15 -31 -20 0 -5 -7 -9 -15 -9 -8 0 -15 -5 -15 -11 0 -14 -47 -59
-61 -59 -6 0 -8 -4 -4 -9 3 -5 -1 -16 -9 -24 -8 -8 -18 -27 -22 -41 -3 -15
-12 -25 -18 -23 -7 3 -12 -13 -14 -42 -1 -28 -9 -51 -18 -58 -24 -18 -25 -234
-1 -258 20 -19 32 -59 22 -75 -3 -6 -1 -9 7 -8 7 2 14 -7 16 -18 2 -12 12 -30
23 -40 10 -9 19 -23 19 -29 0 -7 7 -15 15 -19 8 -3 15 -17 15 -31 0 -21 5 -25
28 -25 21 0 30 -7 38 -28 8 -21 20 -31 43 -35 18 -4 30 -11 27 -16 -7 -10 60
-25 74 -16 6 4 13 -1 16 -9 4 -10 18 -16 36 -16 17 0 27 -4 23 -10 -4 -6 28
-10 89 -10 65 0 96 4 96 11 0 8 14 9 43 5 26 -4 37 -3 28 3 -16 11 -6 17 41
26 21 4 35 11 32 16 -3 5 9 9 25 9 20 0 31 5 31 14 0 8 13 19 30 25 17 5 30
15 30 20 0 6 14 11 30 11 20 0 30 5 30 15 0 8 7 15 15 15 9 0 18 7 21 15 4 8
16 15 29 15 13 0 25 6 28 14 3 7 19 16 36 19 18 4 31 13 31 22 0 8 8 15 19 15
10 0 24 7 31 15 7 8 27 15 44 16 17 0 25 3 18 6 -17 7 -5 23 19 23 11 0 22 7
25 15 4 8 17 15 30 15 13 0 28 9 34 20 6 11 14 19 18 18 9 -3 75 32 83 43 3 5
17 10 31 11 16 1 29 10 31 20 3 10 14 18 25 18 11 0 25 7 32 15 7 8 17 15 22
15 5 0 16 7 24 15 9 8 24 15 34 15 10 0 20 7 24 15 4 11 20 15 57 15 36 0 59
6 72 17 18 17 19 17 32 0 11 -15 14 -15 25 -2 16 19 34 19 50 0 7 -9 29 -15
54 -15 36 0 43 -4 54 -30 7 -16 24 -39 37 -52 12 -12 20 -29 17 -37 -3 -9 -1
-12 6 -7 12 7 38 -38 33 -57 -1 -5 2 -6 7 -3 5 3 19 -9 32 -27 13 -18 30 -36
37 -40 7 -5 11 -12 8 -17 -3 -5 4 -14 15 -20 11 -6 20 -17 20 -25 0 -8 9 -19
20 -25 11 -6 20 -17 20 -25 0 -8 5 -15 10 -15 6 0 10 -7 10 -15 0 -9 6 -12 15
-9 10 4 15 0 15 -10 0 -9 7 -19 15 -22 8 -4 15 -11 15 -18 0 -6 11 -23 24 -38
14 -14 22 -29 19 -32 -4 -3 1 -6 10 -6 10 0 17 -7 17 -15 0 -8 7 -15 15 -15 8
0 15 -6 15 -13 0 -7 14 -23 30 -35 17 -13 30 -29 30 -37 0 -8 7 -15 15 -15 8
0 15 -7 15 -15 0 -8 7 -15 15 -15 8 0 15 -5 15 -11 0 -15 42 -59 58 -59 6 0
12 -5 12 -11 0 -11 32 -46 125 -141 22 -23 39 -45 38 -49 -2 -5 1 -9 5 -9 14
0 62 -45 62 -58 0 -7 5 -12 11 -12 5 0 40 -29 76 -65 36 -36 69 -65 74 -65 5
0 9 -5 9 -11 0 -6 14 -22 30 -36 17 -13 28 -29 24 -34 -3 -5 2 -9 11 -9 8 0
18 -7 21 -15 4 -8 15 -15 25 -15 10 0 19 -7 19 -15 0 -9 7 -18 15 -21 8 -4 15
-12 15 -20 0 -8 10 -14 22 -14 12 0 19 -3 16 -6 -9 -8 41 -54 55 -51 7 1 11
-4 9 -11 -1 -7 5 -15 15 -19 21 -8 59 -46 56 -55 -2 -5 4 -8 12 -8 8 0 15 -6
15 -14 0 -8 10 -16 23 -18 12 -2 22 -10 22 -18 0 -8 10 -16 23 -18 12 -2 22
-10 22 -18 0 -8 9 -14 20 -14 14 0 20 -6 18 -17 -2 -10 3 -17 10 -16 6 2 12
-2 12 -7 0 -6 11 -15 25 -20 14 -5 25 -14 25 -20 0 -5 9 -10 21 -10 12 0 23
-8 26 -20 3 -11 13 -20 22 -20 9 0 27 -14 40 -30 13 -17 29 -30 37 -30 8 0 13
-6 11 -12 -1 -8 10 -14 26 -16 21 -3 27 -8 22 -21 -4 -13 1 -17 22 -16 17 0
27 -5 26 -12 -2 -7 2 -13 7 -13 6 0 19 -8 29 -18 37 -32 50 -42 61 -42 5 0 10
-15 10 -34 0 -25 5 -35 20 -39 18 -5 20 -14 20 -80 0 -65 -2 -75 -17 -73 -15
1 -18 -9 -21 -61 -2 -38 -8 -66 -17 -73 -8 -7 -15 -21 -15 -31 0 -11 -4 -19
-9 -19 -5 0 -12 -14 -16 -31 -5 -20 -11 -29 -21 -25 -10 4 -14 -2 -14 -18 0
-13 -7 -26 -15 -30 -8 -3 -15 -14 -15 -24 0 -11 -6 -25 -14 -32 -8 -6 -16 -21
-18 -33 -2 -12 -9 -21 -16 -20 -6 2 -12 -4 -12 -13 0 -8 -5 -25 -11 -36 -9
-17 -13 -18 -20 -7 -6 9 -7 1 -2 -20 5 -29 4 -33 -10 -28 -11 4 -17 -2 -22
-24 -4 -17 -13 -33 -21 -36 -8 -3 -14 -19 -14 -35 0 -23 -4 -29 -15 -24 -10 3
-15 -1 -15 -12 0 -10 -7 -27 -15 -38 -8 -10 -15 -27 -15 -36 0 -10 -6 -18 -14
-18 -8 0 -17 -12 -20 -26 -4 -15 -14 -33 -21 -41 -8 -8 -15 -24 -15 -35 0 -13
-5 -18 -13 -15 -9 3 -13 -3 -13 -17 1 -12 -4 -20 -12 -18 -8 1 -11 -2 -7 -8 3
-5 1 -10 -4 -10 -6 0 -11 -11 -11 -25 0 -16 -6 -25 -15 -25 -9 0 -15 -9 -15
-24 0 -13 -6 -29 -14 -35 -7 -6 -16 -25 -20 -42 -3 -17 -10 -28 -15 -25 -15
10 -21 -34 -20 -154 0 -116 7 -154 24 -148 6 2 11 -11 13 -29 2 -17 10 -37 18
-43 8 -7 14 -20 14 -29 0 -9 9 -24 20 -34 12 -10 18 -22 15 -27 -3 -6 4 -10
16 -10 16 0 20 -5 16 -20 -3 -13 0 -20 9 -20 8 0 14 -7 14 -16 0 -10 5 -14 15
-10 9 3 18 -1 21 -9 3 -7 19 -17 36 -20 18 -4 28 -12 25 -19 -4 -9 2 -11 18
-8 17 3 25 -2 30 -17 3 -12 14 -21 23 -21 9 0 29 -7 44 -14 15 -8 30 -11 33
-6 3 5 18 2 33 -5 31 -16 150 -14 160 2 4 6 33 13 65 17 38 5 57 12 57 21 0
15 35 29 50 20 6 -3 7 1 4 9 -4 11 0 16 13 16 11 0 28 9 38 20 10 11 22 17 26
14 5 -3 9 2 9 11 0 8 6 18 14 21 8 3 17 16 20 30 4 16 14 24 27 24 16 0 19 5
14 19 -4 12 0 23 9 28 9 5 17 21 18 36 2 18 7 26 15 23 8 -3 13 2 13 14 0 10
6 25 13 32 8 7 17 26 21 43 6 22 9 26 17 14 6 -10 9 -5 9 19 0 21 5 32 14 32
8 0 17 13 21 29 3 16 13 35 21 42 8 6 14 20 14 30 0 11 7 19 15 19 8 0 15 9
15 19 0 10 7 21 15 25 9 3 15 18 15 36 0 20 5 30 15 30 8 0 15 6 15 14 0 8 8
22 17 32 9 9 18 25 18 35 1 11 10 25 20 33 10 7 15 17 12 23 -3 5 3 17 14 26
10 9 19 26 19 37 0 11 7 20 15 20 8 0 15 9 15 20 0 11 7 23 15 26 8 4 15 17
15 30 0 15 6 24 15 24 9 0 15 9 15 25 0 14 7 28 15 31 8 4 15 14 15 23 0 10
18 30 39 47 22 16 37 32 34 36 -2 5 0 8 5 8 5 0 19 9 32 20 13 11 31 20 40 20
10 0 20 7 24 15 3 9 19 15 41 15 22 0 34 4 32 12 -1 7 13 13 36 15 25 2 37 -1
37 -9 0 -17 55 -48 86 -48 17 0 24 -6 24 -19 0 -14 6 -17 25 -13 32 6 78 -6
70 -18 -4 -6 12 -10 39 -10 41 0 48 -4 45 -26 -2 -15 59 -44 92 -44 20 0 42
-7 49 -14 6 -8 30 -16 53 -18 27 -2 41 -7 40 -15 -2 -9 13 -13 51 -13 45 0 54
-3 59 -20 3 -14 14 -20 31 -20 14 0 26 -4 26 -10 0 -5 15 -10 34 -10 19 0 42
-7 51 -16 10 -11 33 -16 66 -16 30 0 52 -5 57 -14 4 -7 30 -14 62 -16 40 -2
55 -7 55 -18 0 -8 14 -19 30 -24 17 -5 37 -11 45 -14 25 -9 29 -9 71 -11 30
-1 40 -5 36 -15 -4 -10 11 -14 71 -15 54 -1 80 -6 88 -16 8 -11 32 -15 88 -15
67 0 77 -2 74 -17 -2 -10 4 -18 12 -20 8 -1 38 -5 65 -9 l50 -8 -40 -7 c-27
-4 -8 -6 60 -7 63 0 101 -4 103 -11 2 -7 41 -11 108 -11 99 0 151 -11 140 -29
-5 -8 281 -21 452 -21 48 0 82 -4 82 -10 0 -5 13 -10 30 -10 16 0 33 -6 37
-14 4 -8 17 -16 28 -18 11 -2 19 -10 18 -16 -2 -7 3 -12 10 -12 8 0 29 -22 48
-50 19 -27 37 -50 42 -50 4 0 7 -8 7 -19 0 -10 7 -24 15 -31 9 -8 15 -29 15
-55 0 -50 8 -77 21 -69 5 3 9 -236 9 -574 0 -503 2 -581 15 -592 8 -7 15 -23
15 -36 0 -13 9 -29 20 -36 11 -7 20 -19 20 -26 0 -7 9 -22 20 -34 10 -12 17
-25 14 -30 -3 -4 -1 -8 5 -8 14 0 61 -45 61 -59 0 -6 12 -11 26 -11 14 0 23
-4 19 -10 -3 -5 -1 -11 4 -11 6 -1 16 -3 21 -4 6 -1 14 -3 20 -4 5 0 9 -6 7
-13 -4 -19 48 -26 223 -27 169 -1 243 5 235 20 -6 9 12 22 35 26 8 1 16 7 18
12 2 6 12 11 23 11 10 0 19 4 19 9 0 14 45 61 59 61 6 0 11 10 12 23 0 12 3
16 6 9 6 -15 33 30 33 54 0 8 7 14 15 14 11 0 15 11 15 36 0 21 4 33 10 29 6
-3 11 -5 12 -3 2 2 5 269 8 593 4 464 8 589 18 588 8 -2 12 13 12 51 0 39 4
55 15 60 8 3 15 16 15 29 0 13 9 32 20 42 12 10 30 34 41 52 11 18 27 33 34
33 7 0 15 7 19 15 3 8 12 15 20 15 7 0 16 7 20 15 3 9 18 15 36 15 16 0 30 4
30 9 0 5 115 12 255 16 140 4 252 11 250 16 -12 18 39 29 139 29 70 0 106 4
108 12 3 8 36 11 104 11 66 0 86 2 59 6 l-40 7 50 8 c28 4 57 8 65 9 8 2 14
10 12 20 -3 15 7 17 74 17 56 0 80 4 88 15 8 10 34 15 88 16 60 1 75 5 71 15
-4 10 6 14 36 15 42 2 46 2 71 11 8 3 29 9 45 14 17 5 30 16 30 24 0 11 15 16
55 18 32 2 58 9 62 16 5 9 27 14 57 14 33 0 56 5 66 16 9 9 32 16 51 16 19 0
34 5 34 10 0 6 12 10 26 10 17 0 28 6 31 20 5 17 14 20 59 20 38 0 53 4 51 13
-1 8 13 13 40 15 23 2 47 10 53 18 7 7 29 14 49 14 33 0 94 29 92 44 -3 22 4
26 45 26 27 0 43 4 39 10 -8 12 38 24 70 18 19 -4 25 -1 25 13 0 13 7 19 24
19 30 0 86 31 86 48 0 17 39 15 46 -3 4 -10 20 -15 49 -15 26 0 47 -6 55 -15
7 -8 21 -15 32 -15 10 0 21 -7 24 -15 4 -8 17 -15 31 -15 18 0 23 -4 20 -14
-6 -15 16 -39 46 -49 9 -4 17 -13 17 -22 0 -8 6 -14 13 -12 7 1 13 -10 15 -26
2 -15 9 -27 18 -27 8 0 14 -10 14 -24 0 -13 7 -29 15 -36 8 -7 15 -18 15 -26
0 -7 6 -17 13 -21 7 -4 18 -20 24 -35 7 -16 17 -28 22 -28 6 0 8 -6 5 -14 -3
-8 4 -23 16 -34 12 -11 19 -26 15 -32 -4 -6 0 -19 9 -28 8 -9 24 -27 36 -39
11 -13 20 -34 20 -48 0 -18 4 -23 15 -19 11 5 15 -1 15 -20 0 -15 7 -29 15
-32 8 -4 15 -15 15 -25 0 -11 9 -29 20 -41 10 -12 17 -25 15 -29 -3 -4 4 -10
15 -14 14 -4 20 -15 20 -36 0 -17 5 -28 12 -26 7 1 13 -9 14 -22 1 -14 9 -30
18 -36 9 -7 16 -20 16 -29 0 -9 7 -16 15 -16 8 0 14 -3 14 -7 -4 -24 3 -43 15
-43 9 0 16 -12 18 -32 2 -20 8 -32 16 -31 6 2 12 -6 12 -16 0 -22 60 -91 79
-91 6 0 14 -7 17 -15 4 -8 12 -15 20 -15 8 0 11 -6 7 -16 -5 -13 -2 -15 15
-10 15 5 27 1 39 -13 10 -12 24 -21 32 -21 8 0 23 -8 34 -17 15 -13 21 -15 24
-5 3 6 9 12 14 12 4 0 6 -6 3 -13 -7 -20 200 -21 239 -2 15 8 48 17 72 21 29
4 45 11 45 20 0 9 12 14 33 15 17 1 24 3 14 6 -22 6 -12 23 13 23 10 0 23 8
29 17 5 10 18 18 28 18 10 0 17 6 15 13 -1 7 5 15 13 18 8 4 15 12 15 19 0 7
7 18 15 25 8 7 15 21 15 31 0 11 4 19 9 19 5 0 14 14 20 30 5 17 17 38 26 46
12 13 15 46 15 184 0 159 -1 170 -20 180 -13 7 -20 21 -20 40 0 20 -5 30 -15
30 -8 0 -15 8 -15 19 0 10 -7 24 -15 31 -8 7 -15 23 -15 36 0 16 -4 22 -14 18
-10 -4 -16 5 -21 25 -4 17 -11 31 -16 31 -5 0 -9 9 -9 20 0 11 -9 28 -19 37
-11 9 -17 22 -14 29 2 7 -5 15 -16 19 -14 4 -21 15 -21 31 0 15 -6 24 -15 24
-10 0 -15 10 -15 30 0 20 -5 30 -15 30 -9 0 -15 9 -15 25 0 13 -6 28 -14 32
-8 4 -16 17 -18 28 -2 11 -10 19 -16 18 -11 -3 -16 13 -15 45 1 7 -2 11 -5 8
-10 -11 -32 16 -32 40 0 15 -6 24 -15 24 -8 0 -15 5 -15 12 0 22 -35 87 -47
88 -8 0 -13 13 -13 30 0 20 -5 30 -15 30 -8 0 -15 9 -15 19 0 11 -7 26 -15 35
-8 8 -15 26 -15 39 0 14 -7 27 -15 31 -12 4 -15 31 -15 151 0 120 3 147 15
151 8 4 15 12 15 18 0 7 11 18 25 24 14 6 25 16 25 22 0 5 7 10 15 10 8 0 14
6 12 12 -1 8 9 13 26 13 21 -1 26 3 22 16 -5 13 1 18 22 21 16 2 27 8 26 16
-2 6 3 12 11 12 8 0 24 13 37 30 13 16 31 30 40 30 9 0 19 9 22 20 3 12 14 20
26 20 12 0 21 5 21 10 0 6 11 15 25 20 14 5 25 14 25 20 0 5 6 9 13 7 6 -1 11
6 9 16 -2 11 4 17 18 17 11 0 20 7 20 15 0 9 9 15 25 15 14 0 25 5 25 11 0 14
47 59 61 59 5 0 9 7 9 15 0 8 6 15 13 15 6 1 23 14 37 30 13 17 30 30 37 30 7
0 13 6 13 14 0 7 9 16 21 19 12 3 18 10 14 16 -3 7 2 11 14 11 12 0 21 6 21
14 0 8 7 16 15 20 8 3 15 12 15 21 0 8 9 15 19 15 10 0 21 7 25 15 3 8 13 15
21 15 9 0 14 4 11 9 -4 5 7 21 24 34 16 14 30 30 30 36 0 6 4 11 9 11 5 0 39
30 77 68 37 37 72 66 77 64 5 -1 6 2 3 6 -6 9 51 62 66 62 4 0 7 3 6 8 -3 6
23 35 122 138 22 23 40 47 40 53 0 6 6 11 13 11 15 0 57 44 57 59 0 6 7 11 15
11 8 0 15 7 15 15 0 8 7 15 15 15 8 0 15 7 15 15 0 8 13 24 29 36 16 12 32 30
34 41 3 11 10 17 16 13 6 -3 11 1 11 9 0 9 7 16 17 16 9 0 14 3 10 6 -3 3 5
18 19 32 13 15 24 32 24 38 0 7 7 14 15 18 8 3 15 13 15 22 0 10 5 14 15 10 9
-3 15 0 15 9 0 8 5 15 10 15 6 0 10 7 10 15 0 8 9 19 20 25 11 6 20 17 20 25
0 8 10 21 22 29 12 9 18 16 13 16 -5 0 1 9 13 20 12 12 30 33 39 48 10 15 23
31 30 35 7 4 13 15 13 22 0 8 7 15 16 15 9 0 14 6 11 13 -3 7 6 23 18 35 13
13 30 36 37 52 10 23 20 30 40 30 17 0 28 6 31 18 4 16 5 16 6 0 1 -22 27 -24
35 -3 8 21 155 20 163 -1 3 -10 22 -14 59 -14 42 0 52 -3 48 -14 -4 -11 4 -16
28 -18 20 -2 32 -8 31 -15 -2 -8 8 -13 27 -13 17 0 29 -5 27 -11 -1 -7 13 -16
31 -21 24 -6 32 -13 28 -24 -4 -11 0 -13 19 -8 18 4 27 1 31 -10 3 -9 14 -16
24 -16 10 0 23 -7 30 -15 7 -8 21 -15 31 -15 10 0 21 -9 24 -20 4 -12 15 -20
29 -20 13 0 29 -7 36 -15 7 -8 21 -15 32 -15 14 0 18 -5 14 -15 -4 -11 2 -15
24 -15 19 0 30 -5 30 -14 0 -9 12 -16 28 -18 16 -2 27 -9 27 -18 0 -9 11 -16
28 -18 16 -2 31 -10 34 -18 3 -8 16 -14 29 -14 13 0 23 -5 21 -12 -1 -7 5 -13
13 -14 8 0 21 -2 28 -2 6 -1 12 -9 12 -17 0 -9 9 -15 25 -15 14 0 28 -7 31
-15 4 -8 15 -15 26 -15 11 0 22 -8 25 -19 3 -13 11 -17 25 -13 13 3 26 -1 32
-10 6 -9 20 -17 31 -20 12 -2 19 -10 17 -21 -2 -15 2 -16 24 -11 19 5 25 4 20
-5 -4 -6 -2 -11 3 -11 6 0 11 5 11 10 0 14 37 13 46 -1 6 -11 49 -8 108 7 21
5 27 4 22 -5 -4 -6 -1 -11 9 -11 9 0 13 5 9 11 -4 7 10 9 47 6 30 -2 42 -2 27
0 -16 2 -28 9 -28 14 0 7 12 8 30 4 19 -4 30 -3 30 4 0 6 12 11 26 11 14 0 23
4 19 10 -3 6 -1 10 6 10 26 0 159 122 159 146 0 8 4 14 9 14 5 0 12 11 15 25
4 14 10 23 15 21 5 -3 11 8 15 26 3 17 15 38 26 45 20 14 21 23 18 169 -3 145
-5 154 -27 175 -16 15 -21 28 -17 45 5 18 3 22 -8 18 -10 -4 -16 4 -21 24 -3
17 -13 33 -21 36 -9 3 -12 10 -9 16 3 5 -1 10 -9 10 -9 0 -22 16 -30 35 -10
23 -22 35 -34 35 -11 0 -22 6 -25 14 -3 8 -16 16 -29 18 -13 2 -22 9 -21 16 2
7 -9 12 -27 12 -19 0 -30 5 -30 14 0 8 -11 17 -25 20 -14 4 -25 11 -25 16 0 6
-9 10 -20 10 -11 0 -28 9 -37 19 -9 11 -22 17 -29 14 -8 -3 -17 2 -20 11 -3 9
-17 16 -31 16 -16 0 -27 7 -30 20 -3 11 -13 20 -23 20 -10 0 -23 6 -30 14 -6
8 -21 16 -33 18 -13 2 -22 10 -21 19 1 11 -6 14 -27 11 -22 -3 -29 0 -29 12 0
9 -8 16 -20 16 -11 0 -29 9 -40 20 -11 11 -27 20 -35 20 -8 0 -15 7 -15 15 0
9 -9 15 -24 15 -13 0 -29 7 -36 15 -7 8 -21 15 -32 15 -14 0 -18 5 -14 15 4
11 -1 15 -19 15 -14 0 -34 9 -45 20 -11 11 -27 20 -36 20 -8 0 -12 5 -9 10 4
6 -7 10 -24 10 -20 0 -31 5 -31 14 0 7 -14 16 -31 20 -17 3 -28 10 -24 16 3 5
-1 10 -9 10 -9 0 -16 9 -16 20 0 11 -4 20 -10 20 -15 0 -50 38 -50 55 0 8 -7
15 -15 15 -10 0 -15 10 -15 33 0 22 -7 36 -20 45 -18 11 -21 21 -18 70 2 39 7
56 15 55 12 -3 53 69 53 93 0 6 7 11 16 10 14 -1 17 9 18 49 1 34 5 49 14 48
8 -2 12 11 12 42 0 34 4 45 15 45 9 0 21 11 27 25 6 14 15 25 20 25 4 0 8 18
8 39 0 22 5 41 11 43 6 2 12 24 14 48 2 25 4 49 4 54 1 4 8 6 16 2 12 -4 15 5
15 47 0 41 4 55 20 65 13 8 20 23 20 41 0 17 5 33 10 36 6 3 10 17 10 30 0 13
7 28 16 33 12 6 16 23 16 61 -1 36 3 54 14 58 10 3 14 21 14 58 0 44 3 55 19
60 12 3 22 19 26 38 3 18 10 50 15 72 5 22 11 49 12 60 2 11 9 20 17 20 10 0
14 20 15 80 1 58 4 79 14 78 9 -2 12 19 12 82 0 47 3 84 8 84 26 -4 32 4 32
44 0 23 5 49 11 57 8 11 9 6 7 -22 -2 -21 0 -38 4 -38 4 0 8 25 8 55 0 31 -4
55 -10 55 -7 0 -7 6 0 19 5 11 10 33 10 50 0 17 5 31 10 31 6 0 10 41 10 104
0 103 11 163 29 152 5 -3 12 102 16 244 4 138 11 250 16 250 5 0 9 13 9 29 0
16 6 31 15 35 8 3 15 10 15 16 0 14 25 40 39 40 6 0 8 7 5 15 -4 8 -2 15 3 15
6 0 20 9 33 20 12 11 26 17 30 15 4 -3 10 4 13 15 3 12 14 20 26 20 12 0 24 7
27 15 5 11 22 15 65 15 42 0 58 4 56 13 -1 9 121 13 581 15 508 2 582 4 582
17 0 10 11 15 34 15 21 0 36 6 40 15 3 8 14 15 25 15 11 0 25 9 31 20 6 11 17
20 24 20 8 0 16 7 20 15 3 8 12 15 21 15 8 0 15 5 15 10 0 6 14 24 30 40 17
16 30 37 30 47 0 10 9 27 21 36 11 10 18 25 15 33 -3 8 -1 14 4 14 6 0 10 71
10 180 0 121 -4 180 -11 180 -6 0 -8 8 -4 20 4 13 -1 25 -14 37 -13 10 -21 30
-21 48 0 23 -3 27 -10 15 -5 -8 -10 -10 -10 -4 0 17 -52 74 -67 74 -7 0 -13 7
-13 15 0 8 -6 15 -14 15 -7 0 -19 7 -26 15 -7 8 -21 15 -31 15 -12 0 -19 7
-19 20 0 16 -7 20 -35 20 -22 0 -38 6 -41 15 -5 13 -80 15 -591 15 -508 0
-584 2 -580 15 5 11 -7 15 -56 17 -43 2 -61 7 -59 16 1 7 -9 12 -28 12 -20 0
-30 5 -30 15 0 8 -6 15 -13 15 -17 0 -107 90 -107 107 0 8 -7 16 -15 19 -9 4
-15 19 -15 35 0 16 -4 29 -10 29 -6 0 -10 34 -10 83 0 172 -13 446 -22 441
-17 -11 -28 50 -28 152 0 63 -4 104 -10 104 -5 0 -10 14 -10 31 0 17 -5 39
-10 50 -7 13 -7 19 0 19 6 0 10 24 10 55 0 30 -4 55 -8 55 -4 0 -6 -17 -4 -37
2 -29 1 -34 -7 -23 -6 8 -11 34 -11 57 0 33 -4 43 -20 48 -18 6 -20 15 -20 86
0 58 -3 78 -12 77 -10 -2 -13 19 -14 77 -1 65 -5 81 -18 83 -9 2 -16 13 -16
26 0 13 -4 36 -9 52 -5 16 -12 46 -16 66 -4 24 -12 39 -25 43 -16 5 -20 15
-20 54 0 30 -6 53 -14 61 -10 7 -15 30 -14 62 0 37 -5 54 -16 60 -9 5 -16 20
-16 33 0 13 -4 27 -10 30 -5 3 -10 19 -10 36 0 18 -7 33 -20 41 -16 10 -20 24
-20 65 0 42 -3 51 -15 47 -8 -4 -15 -2 -16 2 0 5 -2 29 -4 54 -2 24 -8 46 -14
48 -6 2 -11 21 -11 43 0 21 -4 39 -8 39 -5 0 -14 11 -20 25 -6 14 -18 25 -27
25 -11 0 -15 11 -15 45 0 31 -4 44 -12 43 -9 -2 -13 13 -14 47 -1 40 -4 50
-18 49 -9 -1 -16 4 -16 11 0 7 -7 26 -15 41 -9 17 -15 56 -15 92 0 53 4 68 30
104 17 22 30 46 30 52 0 14 36 46 50 46 6 0 13 7 16 15 4 8 12 15 20 15 8 0
14 9 14 20 0 15 7 20 25 20 14 0 25 4 25 9 0 5 11 12 25 15 14 4 25 10 25 15
0 5 14 12 30 16 17 4 28 10 25 15 -3 5 9 11 26 15 17 4 33 13 36 21 3 8 18 14
34 14 21 0 27 4 23 15 -4 9 3 16 20 21 14 3 26 10 26 15 0 5 11 9 25 9 14 0
28 6 31 14 3 8 19 19 35 25 16 5 29 15 29 20 0 6 12 11 26 11 14 0 23 4 20 9
-8 13 22 22 50 15 14 -4 24 -2 24 5 0 6 -5 11 -11 11 -5 0 -7 5 -4 10 3 6 17
10 30 10 12 0 25 7 29 15 3 8 13 15 23 15 10 0 24 9 31 20 7 11 19 20 27 20 8
0 15 5 15 10 0 6 14 10 30 10 20 0 30 5 30 15 0 8 7 15 15 15 8 0 24 9 35 20
11 11 29 20 39 20 10 0 21 7 25 15 3 8 15 15 26 15 12 0 19 4 15 9 -3 5 4 12
15 16 11 3 20 13 20 21 0 8 7 14 15 14 9 0 23 16 32 35 9 19 20 35 25 35 4 0
8 7 8 15 0 7 7 18 16 23 61 34 82 327 33 437 -13 28 -22 53 -21 58 1 4 -4 6
-10 5 -8 -2 -13 7 -12 20 0 15 -4 21 -13 18 -7 -3 -13 1 -13 10 0 23 -32 74
-47 74 -6 0 -18 8 -25 18 -15 19 -41 37 -75 52 -13 5 -23 16 -23 23 0 9 -8 13
-23 10 -13 -3 -32 4 -46 16 -22 19 -37 21 -172 21 -147 0 -184 -4 -174 -21 7
-10 -40 -23 -53 -15 -5 3 -9 -2 -8 -12 0 -10 -7 -18 -21 -20 -12 -2 -27 -10
-33 -18 -7 -8 -21 -14 -31 -14 -10 0 -23 -9 -30 -21 -7 -14 -17 -19 -30 -16
-12 3 -19 0 -19 -9 0 -8 -10 -14 -24 -14 -13 0 -26 -7 -30 -15 -3 -8 -15 -15
-27 -15 -12 0 -23 -8 -26 -20 -3 -13 -14 -20 -28 -20 -13 0 -26 -7 -29 -16 -4
-11 -14 -15 -31 -12 -19 4 -25 1 -23 -11 2 -10 -5 -17 -19 -19 -12 -2 -27 -10
-33 -18 -7 -8 -23 -14 -35 -14 -15 0 -25 -7 -28 -21 -5 -17 -11 -20 -30 -15
-19 4 -24 2 -23 -11 1 -12 -9 -20 -29 -24 -16 -4 -25 -7 -20 -8 6 -1 3 -6 -5
-11 -8 -5 -25 -7 -38 -3 -19 4 -23 2 -20 -13 2 -13 -4 -20 -20 -22 -13 -2 -26
-10 -29 -18 -3 -8 -16 -14 -29 -14 -15 0 -24 -6 -24 -15 0 -14 -17 -20 -47
-16 -7 1 -13 -5 -13 -14 0 -9 -9 -15 -25 -15 -16 0 -25 -6 -25 -15 0 -12 -13
-15 -56 -15 -48 0 -57 -3 -61 -20 -6 -22 -28 -22 -28 0 0 23 -26 23 -32 1 -7
-26 -19 -27 -32 -4 -5 10 -23 18 -40 19 -52 3 -101 15 -101 24 0 6 -6 10 -13
10 -6 0 -18 13 -25 30 -7 16 -24 39 -37 52 -12 12 -20 29 -17 37 3 9 1 12 -6
7 -12 -7 -38 38 -33 57 1 5 -3 6 -8 3 -5 -3 -16 5 -24 18 -9 13 -24 31 -34 41
-10 10 -18 21 -18 24 0 3 -10 17 -23 31 -13 14 -29 32 -37 41 -8 9 -15 21 -15
27 0 7 -4 12 -10 12 -5 0 -10 7 -10 15 0 9 -6 12 -15 9 -10 -4 -15 0 -15 10 0
9 -7 19 -15 22 -8 4 -15 11 -15 18 0 6 -11 23 -24 38 -14 14 -22 29 -19 32 4
3 -1 6 -10 6 -9 0 -17 7 -17 15 0 8 -7 15 -15 15 -8 0 -15 6 -15 13 0 7 -13
23 -30 35 -16 13 -30 29 -30 37 0 8 -7 15 -15 15 -8 0 -15 4 -15 10 0 14 -75
90 -88 90 -7 0 -12 5 -12 11 0 6 -18 30 -39 53 -22 22 -59 61 -83 86 -23 25
-42 48 -40 53 1 4 -2 7 -6 7 -15 0 -72 53 -66 62 3 4 2 7 -3 6 -5 -2 -40 27
-77 65 -38 37 -72 67 -77 67 -5 0 -9 5 -9 11 0 6 -14 22 -30 36 -17 13 -28 29
-24 34 3 5 -2 9 -11 9 -8 0 -18 7 -21 15 -4 8 -15 15 -25 15 -10 0 -19 7 -19
15 0 9 -7 18 -15 21 -8 4 -15 12 -15 20 0 8 -9 14 -21 14 -11 0 -18 4 -14 9 3
5 -4 12 -15 16 -11 3 -20 13 -20 21 0 8 -7 14 -15 14 -7 0 -18 6 -22 13 -4 8
-22 24 -40 37 -18 13 -30 27 -27 32 3 4 1 8 -5 8 -14 0 -61 45 -61 59 0 6 -11
11 -25 11 -16 0 -25 6 -25 15 0 8 -9 15 -20 15 -14 0 -20 6 -18 18 2 9 -3 16
-9 15 -7 -2 -13 2 -13 7 0 6 -11 15 -25 20 -14 5 -25 14 -25 20 0 5 -9 10 -21
10 -12 0 -23 8 -26 20 -3 11 -13 20 -22 20 -9 0 -27 14 -40 30 -13 17 -29 30
-37 30 -8 0 -13 6 -11 13 1 7 -10 13 -26 15 -21 3 -27 8 -22 21 4 13 -1 17
-22 16 -17 0 -27 5 -26 13 2 6 -4 12 -12 12 -8 0 -15 5 -15 10 0 6 -11 16 -25
22 -14 6 -25 17 -25 23 0 7 -7 26 -15 41 -21 41 -21 194 0 194 12 0 15 13 15
55 0 41 4 55 14 55 9 0 12 7 9 19 -3 13 2 24 16 33 12 7 21 20 21 29 0 9 7 19
15 23 8 3 15 16 15 30 0 14 5 28 10 31 5 3 10 1 10 -4 0 -6 5 -11 10 -11 6 0
8 10 4 24 -3 14 0 29 9 38 8 8 17 23 19 34 2 10 9 18 14 17 5 -1 11 8 11 20 1
12 11 28 23 36 11 7 20 24 20 37 0 12 5 26 11 29 5 4 14 18 20 32 5 13 13 21
19 18 6 -4 10 5 10 20 0 14 7 28 15 31 8 4 15 15 15 25 0 10 9 28 20 39 11 11
20 27 20 35 0 8 4 15 9 15 5 0 12 14 16 30 4 17 11 30 16 30 5 0 9 6 9 13 0 8
9 22 20 32 11 10 20 26 20 35 0 10 6 20 14 23 8 3 16 16 18 29 2 16 9 22 21
20 14 -2 16 2 12 21 -4 15 -1 30 9 40 9 8 16 23 16 32 0 8 7 18 15 21 10 4 15
20 15 51 0 24 4 42 9 38 13 -8 13 146 -1 162 -5 7 -8 24 -5 38 2 14 2 23 -1
20 -12 -12 -32 20 -32 52 0 19 -4 32 -9 29 -5 -3 -14 8 -20 24 -5 17 -15 30
-20 30 -6 0 -11 9 -11 20 0 11 -5 20 -11 20 -5 0 -7 5 -4 10 3 6 0 10 -7 10
-7 0 -24 16 -37 35 -13 19 -30 35 -38 35 -8 0 -21 7 -29 15 -9 8 -25 15 -36
15 -14 0 -18 5 -14 15 4 12 0 14 -18 9 -17 -4 -27 1 -39 20 -17 25 -17 25
-169 25 -175 0 -194 -3 -201 -31 -5 -16 -11 -19 -31 -14 -20 5 -24 3 -20 -8 4
-11 -3 -17 -23 -22 -15 -4 -38 -18 -50 -31 -12 -12 -26 -23 -31 -23 -6 0 -13
-6 -16 -12 -3 -7 -15 -26 -26 -43 -11 -16 -24 -40 -30 -52 -5 -13 -15 -23 -21
-23 -6 0 -8 -7 -5 -16 4 -11 -1 -18 -14 -21 -14 -4 -20 -14 -20 -34 0 -16 -5
-29 -11 -29 -5 0 -15 -13 -20 -30 -6 -16 -17 -30 -24 -30 -8 0 -11 -8 -8 -20
3 -12 -1 -22 -11 -26 -9 -3 -16 -17 -16 -30 0 -14 -6 -24 -14 -24 -8 0 -17
-14 -21 -31 -4 -17 -13 -33 -21 -36 -8 -3 -14 -16 -14 -29 0 -13 -4 -24 -9
-24 -5 0 -14 -13 -21 -30 -7 -16 -16 -30 -21 -30 -5 0 -9 -9 -9 -20 0 -11 -4
-20 -10 -20 -5 0 -22 -26 -37 -57 -15 -32 -31 -60 -34 -63 -4 -3 -9 -14 -11
-25 -2 -11 -10 -19 -16 -18 -7 2 -13 -4 -13 -12 -3 -28 -4 -31 -21 -49 -17
-16 -22 -30 -19 -48 0 -5 -3 -8 -8 -8 -5 0 -14 -14 -20 -31 -6 -17 -15 -28
-21 -24 -6 3 -10 -3 -10 -15 0 -13 -8 -24 -20 -27 -11 -3 -20 -12 -20 -19 0
-8 -7 -14 -16 -14 -8 0 -12 -5 -9 -10 3 -6 -1 -13 -9 -16 -9 -3 -16 -12 -16
-20 0 -8 -10 -14 -24 -14 -13 0 -26 -7 -30 -15 -3 -9 -18 -15 -36 -15 -17 0
-29 -4 -25 -9 9 -15 -12 -23 -76 -28 -53 -4 -61 -2 -65 14 -6 23 -57 53 -90
53 -17 0 -24 6 -24 19 0 14 -6 17 -25 13 -32 -6 -78 6 -70 18 4 6 -12 10 -39
10 -41 0 -48 4 -45 26 2 15 -59 44 -92 44 -20 0 -42 7 -49 14 -6 8 -30 16 -53
18 -27 2 -41 7 -40 16 2 8 -13 12 -50 12 -41 0 -55 4 -65 20 -7 11 -21 20 -32
20 -11 0 -20 5 -20 10 0 6 -15 10 -34 10 -19 0 -42 7 -51 16 -10 11 -33 16
-66 16 -30 0 -52 5 -57 14 -4 7 -30 14 -62 16 -38 2 -54 7 -52 16 1 7 -8 16
-20 21 -69 28 -66 27 -132 30 -28 1 -37 5 -33 15 4 10 -11 14 -71 15 -53 1
-80 6 -88 16 -7 10 -36 15 -90 17 -69 3 -79 5 -76 21 2 13 -4 17 -26 17 -16 0
-45 3 -63 7 l-34 8 40 6 c26 4 5 6 -60 7 -63 0 -101 4 -103 11 -2 7 -40 11
-107 11 -100 0 -170 15 -144 31 6 3 -104 10 -245 14 -141 4 -256 11 -256 16 0
5 -14 9 -30 9 -18 0 -33 6 -36 15 -4 8 -13 15 -20 15 -8 0 -17 7 -20 15 -4 8
-12 15 -19 15 -7 0 -23 15 -34 33 -11 18 -29 42 -41 52 -11 10 -20 29 -20 42
0 13 -7 26 -15 29 -11 5 -15 21 -15 60 0 38 -4 53 -12 51 -10 -1 -14 124 -18
588 -3 325 -6 591 -8 593 -1 2 -6 0 -12 -3 -6 -4 -10 8 -10 29 0 25 -4 36 -15
36 -8 0 -15 6 -15 14 0 24 -27 69 -33 54 -3 -7 -6 -3 -6 10 -1 12 -6 22 -12
22 -14 0 -59 47 -59 61 0 5 -9 9 -19 9 -11 0 -21 5 -23 11 -2 5 -10 11 -18 12
-23 4 -41 17 -35 26 2 5 -12 11 -33 15 -49 8 -359 6 -397 -3z m585 -2836 c19
-3 104 -9 188 -13 87 -5 157 -13 160 -19 4 -6 63 -12 137 -15 84 -3 130 -9
133 -17 2 -7 35 -11 92 -11 74 0 91 -3 99 -17 7 -14 28 -19 92 -24 49 -3 84
-10 87 -17 2 -7 25 -12 57 -12 30 0 57 -4 60 -10 3 -5 21 -10 38 -10 18 -1 57
-7 87 -14 50 -12 52 -14 25 -18 -16 -3 2 -6 40 -7 44 0 79 -7 92 -16 11 -8 39
-17 62 -21 23 -4 44 -10 46 -14 3 -5 -4 -6 -15 -3 -12 3 -20 0 -20 -7 0 -9 12
-11 45 -7 48 7 78 1 69 -14 -3 -5 18 -9 46 -9 44 0 53 -3 57 -20 4 -15 11 -19
24 -15 25 8 59 -3 56 -18 -1 -8 16 -13 48 -15 27 -2 57 -9 65 -17 8 -7 24 -15
35 -17 11 -2 19 -9 18 -15 -1 -6 20 -14 48 -17 28 -4 47 -11 44 -16 -4 -6 9
-10 29 -10 25 0 38 -6 46 -20 7 -13 21 -20 39 -20 16 0 34 -7 41 -15 7 -8 28
-15 46 -15 19 0 34 -4 34 -10 0 -5 11 -10 25 -10 14 0 30 -9 37 -20 7 -11 23
-20 36 -20 12 0 25 -6 28 -14 3 -7 22 -16 43 -20 21 -3 44 -13 51 -21 7 -8 22
-15 34 -15 17 0 18 -2 6 -10 -11 -7 -8 -10 16 -10 33 0 60 -21 46 -35 -4 -5
-1 -5 6 -1 18 11 62 -2 59 -17 -1 -7 13 -13 36 -15 22 -2 41 -10 44 -18 3 -8
14 -14 25 -14 14 0 18 -5 14 -15 -4 -11 2 -15 23 -15 16 0 31 -7 35 -15 3 -8
14 -15 25 -15 11 0 26 -7 35 -15 8 -8 22 -15 30 -15 9 0 24 -9 33 -20 10 -11
25 -20 35 -20 10 0 18 -4 18 -10 0 -5 7 -10 15 -10 8 0 19 -9 25 -20 6 -12 21
-20 36 -20 13 0 27 -7 30 -15 4 -8 17 -15 30 -15 14 0 27 -7 30 -15 3 -8 14
-17 25 -20 11 -4 17 -11 14 -16 -4 -5 3 -9 14 -9 12 0 30 -9 41 -20 11 -11 27
-20 35 -20 8 0 15 -7 15 -15 0 -9 9 -15 25 -15 14 0 25 -4 25 -9 0 -5 9 -13
20 -16 11 -3 20 -13 20 -21 0 -8 9 -14 19 -14 10 0 21 -7 25 -15 3 -8 13 -15
22 -15 19 0 76 -45 67 -54 -6 -6 12 -10 30 -7 4 1 10 -6 13 -14 4 -8 15 -15
25 -15 12 0 19 -7 19 -20 0 -11 6 -20 13 -20 21 -1 59 -39 51 -51 -5 -9 -2
-10 10 -6 10 4 24 -1 36 -13 11 -11 27 -20 35 -20 8 0 15 -6 15 -13 0 -8 11
-19 25 -25 14 -6 25 -16 25 -22 0 -5 5 -10 10 -10 17 0 51 -40 44 -52 -5 -7 1
-9 20 -4 23 6 29 3 33 -14 4 -13 14 -20 30 -20 17 0 23 -5 21 -17 -2 -12 3
-18 15 -17 9 1 17 -2 17 -7 0 -15 39 -49 55 -49 8 0 15 -9 15 -21 0 -11 4 -18
9 -14 12 7 67 -43 63 -57 -1 -5 2 -7 7 -3 6 3 16 -3 23 -15 7 -11 18 -20 25
-20 18 0 53 -37 53 -56 0 -8 4 -13 9 -10 13 9 65 -40 56 -54 -4 -7 -2 -10 6
-9 16 4 89 -62 89 -80 0 -6 5 -11 12 -11 13 0 88 -76 88 -90 0 -6 6 -10 14
-10 8 0 17 -11 20 -25 4 -14 17 -31 30 -36 13 -6 30 -22 37 -35 7 -13 16 -24
21 -24 4 0 8 -7 8 -15 0 -8 7 -15 15 -15 8 0 15 -7 15 -15 0 -9 7 -18 15 -21
8 -4 15 -12 15 -20 0 -8 7 -14 15 -14 8 0 15 -7 15 -16 0 -8 5 -12 10 -9 6 3
13 -2 17 -12 4 -10 23 -35 42 -57 20 -21 35 -42 34 -47 -2 -5 4 -9 12 -9 8 0
15 -4 15 -9 0 -5 20 -29 44 -53 25 -24 47 -55 51 -71 4 -15 11 -25 15 -22 5 3
11 -4 15 -15 3 -11 11 -20 16 -20 5 0 9 -6 9 -13 0 -7 9 -20 20 -30 11 -9 20
-24 20 -32 0 -9 4 -14 9 -11 4 3 13 -6 19 -19 7 -14 16 -25 22 -25 5 0 10 -9
10 -21 0 -11 5 -17 10 -14 6 3 15 -6 21 -22 5 -15 16 -31 22 -35 7 -4 12 -12
12 -18 0 -6 5 -14 10 -18 16 -11 45 -60 45 -76 0 -8 6 -19 13 -23 13 -8 57
-68 57 -77 0 -6 14 -23 62 -79 15 -18 28 -38 28 -44 0 -7 7 -13 15 -13 8 0 15
-7 15 -15 0 -9 6 -18 14 -21 8 -3 17 -16 20 -30 4 -13 11 -24 16 -24 6 0 10
-8 10 -18 0 -9 9 -34 20 -55 11 -20 20 -50 20 -66 0 -16 7 -34 15 -41 8 -7 15
-20 15 -30 0 -10 7 -20 15 -24 8 -3 15 -14 15 -24 0 -11 7 -25 15 -32 8 -7 15
-22 15 -34 0 -12 9 -29 20 -39 11 -9 20 -26 20 -37 0 -11 5 -20 11 -20 5 0 7
-4 4 -10 -3 -5 -1 -10 4 -10 6 0 11 -7 11 -16 0 -8 7 -23 16 -31 10 -10 13
-25 9 -40 -4 -19 -2 -23 12 -21 14 2 19 -6 23 -37 3 -22 10 -39 16 -38 5 1 11
-12 12 -29 2 -18 11 -38 22 -45 11 -8 20 -25 20 -39 0 -13 5 -24 10 -24 6 0
10 -13 10 -29 0 -16 6 -31 14 -34 7 -3 16 -24 19 -48 3 -23 13 -46 21 -51 10
-6 16 -23 16 -44 0 -19 4 -33 9 -30 11 7 21 -18 21 -55 0 -18 5 -28 13 -27 7
2 13 -11 15 -34 2 -20 10 -42 18 -48 8 -7 14 -30 14 -51 0 -28 5 -41 20 -49
14 -7 20 -21 20 -44 0 -19 7 -47 15 -62 8 -16 15 -39 15 -52 0 -13 7 -31 16
-39 12 -12 15 -29 10 -67 -3 -29 -1 -45 3 -37 13 20 31 -18 31 -62 0 -19 7
-40 15 -47 10 -9 15 -31 15 -72 0 -34 4 -57 9 -53 15 9 21 -10 26 -82 3 -37
10 -69 15 -71 6 -2 10 -34 10 -72 0 -41 4 -70 11 -72 9 -3 25 -105 28 -176 1
-6 7 -11 14 -10 9 2 13 -22 15 -90 2 -52 7 -90 12 -87 15 9 22 -53 18 -172 -3
-100 -1 -113 15 -117 15 -4 17 -22 18 -188 0 -100 2 -192 4 -203 1 -11 8 -49
14 -85 13 -79 13 -306 0 -375 -5 -27 -11 -59 -14 -70 -2 -11 -4 -105 -4 -208
-1 -171 -3 -189 -18 -193 -16 -5 -18 -18 -15 -133 3 -106 0 -131 -12 -144 -12
-12 -16 -37 -16 -101 0 -71 -3 -87 -19 -98 -13 -10 -19 -30 -23 -77 -3 -37
-10 -67 -16 -69 -8 -2 -12 -29 -12 -72 0 -39 -5 -70 -11 -72 -6 -2 -12 -29
-13 -60 -4 -60 -12 -82 -27 -73 -5 4 -9 -23 -9 -63 0 -52 -4 -71 -14 -75 -10
-4 -18 -29 -22 -69 -5 -35 -10 -55 -12 -45 -7 34 -24 18 -18 -17 8 -40 -2 -89
-15 -80 -5 3 -10 -15 -10 -40 -2 -68 -3 -71 -20 -70 -13 1 -15 -7 -12 -40 4
-32 0 -46 -16 -65 -12 -13 -21 -36 -21 -50 -1 -14 -7 -37 -15 -51 -8 -14 -14
-36 -15 -49 0 -16 -4 -21 -15 -17 -12 4 -15 -5 -15 -54 0 -47 -3 -60 -15 -60
-11 0 -15 -11 -15 -36 0 -20 -4 -33 -9 -29 -15 9 -34 -34 -28 -64 7 -33 -6
-57 -24 -46 -9 6 -11 3 -6 -9 9 -22 -2 -68 -14 -60 -5 3 -9 -4 -9 -15 0 -11
-9 -25 -20 -31 -14 -7 -20 -21 -20 -44 0 -19 -6 -39 -14 -46 -8 -6 -16 -28
-18 -48 -2 -30 -7 -36 -21 -34 -15 3 -17 -1 -12 -17 9 -29 -4 -69 -16 -50 -6
10 -9 6 -9 -13 0 -15 -6 -33 -13 -40 -8 -7 -17 -26 -21 -41 -3 -15 -13 -27
-21 -27 -10 0 -15 -10 -15 -29 0 -16 -6 -34 -14 -41 -8 -6 -16 -21 -18 -33 -2
-12 -8 -21 -14 -20 -7 1 -11 -10 -11 -24 0 -14 -8 -30 -17 -35 -11 -6 -15 -16
-11 -28 4 -13 -1 -23 -14 -32 -14 -9 -23 -28 -27 -60 -4 -27 -11 -48 -16 -48
-4 0 -13 -11 -18 -25 -5 -14 -14 -25 -20 -25 -5 0 -10 -8 -10 -18 0 -10 -13
-29 -30 -42 -16 -14 -29 -31 -30 -37 0 -7 -5 -13 -11 -13 -5 0 -15 -14 -20
-30 -6 -17 -15 -30 -20 -30 -5 0 -9 -5 -9 -10 0 -6 -4 -16 -10 -23 -48 -59
-60 -77 -60 -91 0 -9 -4 -16 -10 -16 -5 0 -12 -11 -16 -24 -3 -14 -12 -27 -20
-30 -8 -3 -14 -10 -14 -16 0 -6 -9 -20 -20 -32 -10 -12 -17 -24 -15 -28 3 -5
-2 -10 -10 -14 -8 -3 -15 -12 -15 -21 0 -8 -7 -15 -15 -15 -8 0 -15 -6 -15
-14 0 -8 -16 -31 -35 -50 -19 -20 -35 -43 -35 -51 0 -8 -6 -15 -14 -15 -8 0
-13 -8 -12 -17 0 -10 -4 -17 -11 -16 -6 1 -14 -11 -18 -27 -4 -17 -13 -30 -21
-30 -8 0 -14 -7 -14 -15 0 -8 -6 -15 -14 -15 -7 0 -16 -9 -19 -20 -3 -11 -11
-19 -19 -17 -7 2 -10 2 -6 0 11 -7 -3 -33 -18 -33 -8 0 -17 -13 -20 -30 -4
-16 -13 -30 -20 -30 -8 0 -14 -7 -14 -15 0 -8 -7 -15 -15 -15 -8 0 -15 -9 -15
-20 0 -11 -6 -20 -12 -20 -7 0 -22 -14 -33 -30 -11 -16 -26 -30 -32 -30 -7 0
-13 -7 -13 -15 0 -8 -4 -15 -8 -15 -5 0 -15 -12 -23 -27 -17 -33 -45 -63 -59
-63 -5 0 -10 -7 -10 -15 0 -8 -7 -15 -15 -15 -8 0 -15 -9 -15 -20 0 -11 -7
-20 -15 -20 -8 0 -15 -7 -15 -15 0 -8 -6 -15 -12 -15 -7 0 -22 -14 -33 -30
-11 -16 -26 -30 -33 -30 -6 0 -11 -3 -10 -7 4 -10 -39 -53 -52 -53 -5 0 -10
-4 -10 -10 0 -12 -48 -60 -61 -60 -6 0 -7 -5 -4 -11 4 -6 -2 -13 -14 -16 -12
-3 -21 -12 -21 -19 0 -8 -6 -14 -14 -14 -8 0 -16 -7 -20 -15 -3 -8 -12 -15
-21 -15 -8 0 -15 -7 -15 -15 0 -8 -4 -15 -10 -15 -12 0 -50 -37 -50 -49 0 -5
-14 -11 -31 -15 -17 -3 -28 -10 -24 -16 3 -6 -2 -13 -12 -17 -10 -3 -22 -12
-26 -20 -4 -7 -14 -13 -22 -13 -9 0 -12 -6 -8 -17 5 -13 2 -15 -16 -10 -16 4
-21 1 -19 -11 2 -10 -5 -18 -17 -20 -11 -3 -25 -12 -32 -22 -9 -12 -20 -16
-34 -13 -16 4 -20 3 -15 -6 10 -15 -34 -61 -51 -54 -7 3 -13 -1 -13 -9 0 -8
-11 -20 -25 -26 -14 -6 -25 -16 -25 -22 0 -5 -6 -10 -14 -10 -8 0 -16 -7 -20
-15 -3 -8 -18 -15 -33 -16 -15 0 -22 -3 -15 -6 19 -7 14 -23 -7 -23 -10 0 -21
-7 -25 -15 -3 -8 -15 -15 -26 -15 -13 0 -20 -7 -20 -20 0 -13 -7 -20 -20 -20
-11 0 -20 -4 -20 -10 0 -5 -11 -12 -24 -16 -14 -3 -27 -12 -30 -20 -3 -8 -12
-14 -21 -14 -8 0 -15 -6 -15 -14 0 -9 -12 -16 -27 -18 -16 -2 -27 -8 -25 -15
2 -13 -9 -17 -40 -14 -12 2 -16 -3 -12 -12 3 -10 -2 -18 -15 -22 -12 -3 -21
-11 -21 -16 0 -5 -11 -9 -25 -9 -15 0 -25 -6 -25 -14 0 -8 -11 -17 -25 -20
-14 -4 -25 -13 -25 -21 0 -10 -10 -15 -30 -15 -19 0 -29 -5 -28 -12 2 -8 -8
-13 -26 -13 -16 -1 -32 -7 -34 -14 -3 -9 0 -11 8 -6 9 5 11 4 6 -3 -4 -7 -14
-12 -22 -12 -9 0 -22 -7 -30 -15 -9 -8 -24 -15 -34 -15 -10 0 -22 -9 -25 -20
-4 -13 -15 -20 -30 -20 -13 0 -25 -4 -27 -9 -1 -5 -12 -11 -23 -13 -11 -1 -26
-11 -33 -20 -7 -10 -22 -18 -33 -18 -11 0 -18 -4 -15 -9 4 -5 -8 -12 -25 -16
-17 -4 -33 -13 -36 -21 -3 -8 -18 -14 -34 -14 -21 0 -27 -4 -23 -15 5 -11 -1
-15 -20 -15 -15 0 -29 -7 -32 -15 -4 -9 -19 -15 -35 -15 -19 0 -29 -5 -29 -15
0 -8 -14 -17 -34 -21 -19 -3 -37 -12 -40 -20 -3 -8 -19 -14 -36 -14 -17 0 -29
-4 -25 -9 8 -13 -32 -24 -61 -17 -20 5 -24 3 -22 -11 2 -12 -4 -19 -19 -21
-12 -2 -27 -10 -33 -18 -7 -8 -25 -14 -40 -14 -19 0 -29 -6 -33 -20 -4 -15
-14 -20 -42 -20 -21 0 -34 -4 -30 -10 4 -6 -12 -10 -42 -10 -31 0 -43 -3 -34
-9 16 -11 7 -16 -41 -25 -21 -4 -37 -12 -35 -19 1 -7 -14 -13 -41 -15 -23 -2
-40 -7 -37 -12 6 -10 -33 -23 -56 -18 -9 2 -13 -4 -11 -14 2 -14 -4 -18 -26
-18 -16 0 -35 -7 -42 -14 -6 -8 -33 -16 -58 -18 -29 -2 -46 -7 -45 -15 3 -15
-49 -27 -79 -18 -18 5 -20 4 -8 -4 13 -10 13 -12 0 -21 -8 -5 -32 -10 -53 -10
-21 0 -36 -4 -33 -9 8 -12 -48 -22 -84 -15 -29 6 -44 -10 -17 -19 6 -2 -14 -7
-46 -11 -36 -5 -60 -13 -64 -22 -4 -10 -24 -14 -72 -14 -41 0 -61 -4 -52 -9
18 -11 -3 -18 -84 -26 -33 -4 -61 -11 -63 -16 -2 -5 -35 -9 -73 -9 -38 0 -69
-4 -69 -9 0 -12 -40 -20 -112 -23 -32 -1 -58 -5 -58 -10 0 -5 -5 -6 -10 -3 -6
4 -9 1 -8 -7 2 -10 -21 -14 -100 -16 -60 -2 -100 -7 -97 -12 10 -16 -39 -22
-159 -18 -85 2 -115 0 -112 -9 7 -17 -42 -22 -219 -24 -88 -1 -165 -5 -171
-10 -22 -18 -420 -22 -529 -6 -55 8 -167 15 -250 16 -169 2 -228 9 -222 25 3
8 -26 10 -101 8 -111 -4 -157 2 -147 18 4 6 -32 10 -94 10 -94 0 -101 1 -101
20 0 18 -7 20 -70 20 -54 0 -72 4 -76 15 -5 11 -22 15 -70 15 -35 0 -64 4 -64
9 0 5 -30 12 -67 16 -76 8 -91 14 -72 26 9 5 -13 9 -55 9 -50 0 -72 4 -80 15
-7 10 -34 18 -69 22 -31 3 -57 10 -57 15 0 4 11 6 25 2 16 -4 25 -2 25 6 0 8
-13 10 -44 7 -49 -6 -89 1 -80 14 3 5 -16 9 -41 9 -55 0 -96 17 -74 31 9 5 0
6 -23 2 -47 -7 -88 3 -88 22 0 10 -11 15 -34 15 -18 0 -39 6 -46 14 -6 8 -26
16 -43 18 -20 2 -32 9 -32 18 0 11 -11 14 -46 11 -31 -1 -51 3 -61 13 -8 8
-30 16 -49 18 -19 2 -32 7 -31 12 6 15 -21 26 -69 26 -32 0 -49 5 -53 15 -3 9
-18 15 -36 15 -16 0 -30 4 -30 9 0 5 -11 12 -25 15 -14 4 -25 13 -25 21 0 10
-11 15 -34 15 -18 0 -39 6 -46 14 -6 8 -26 16 -43 18 -25 2 -31 7 -29 21 3 15
-1 17 -17 12 -26 -8 -63 3 -56 16 4 5 -4 9 -17 9 -32 0 -52 15 -43 30 5 9 4
11 -4 6 -17 -11 -61 2 -58 17 1 7 -11 13 -30 15 -17 2 -37 10 -43 18 -7 8 -21
14 -31 14 -22 0 -34 16 -17 23 7 3 -3 6 -23 6 -23 1 -39 7 -43 16 -3 8 -16 15
-28 15 -13 0 -34 3 -47 7 -23 6 -23 7 -5 13 13 5 1 9 -38 14 -40 5 -58 12 -58
22 0 8 -9 14 -20 14 -22 0 -27 15 -7 24 8 4 7 5 -3 5 -41 -3 -60 2 -60 16 0 8
-7 15 -16 15 -8 0 -13 4 -9 9 3 5 -5 13 -17 17 -13 4 -27 13 -33 20 -5 7 -19
14 -30 16 -11 2 -19 10 -17 16 1 7 -6 12 -16 12 -11 0 -27 9 -37 20 -10 11
-24 20 -32 20 -7 0 -13 7 -13 15 0 9 -9 15 -25 15 -14 0 -25 4 -25 9 0 5 -11
12 -25 15 -14 4 -25 13 -25 21 0 9 -10 15 -25 15 -14 0 -24 5 -23 12 2 6 -6
14 -17 16 -11 2 -24 9 -30 16 -5 7 -18 15 -28 19 -10 4 -16 11 -13 16 3 5 -5
12 -19 15 -14 4 -25 11 -25 16 0 6 -7 10 -15 10 -8 0 -15 7 -15 15 0 9 -11 20
-25 25 -14 5 -25 14 -25 20 0 5 -11 10 -25 10 -16 0 -25 6 -25 15 0 8 -9 15
-20 15 -11 0 -20 6 -20 13 0 6 -14 21 -30 32 -16 11 -30 26 -30 33 0 6 -6 12
-14 12 -8 0 -21 6 -28 13 -7 7 -21 16 -30 20 -10 3 -18 13 -18 22 0 10 -7 15
-17 13 -11 -2 -17 2 -15 10 1 8 -7 16 -18 19 -11 3 -20 12 -20 19 0 8 -6 14
-13 14 -7 0 -24 13 -37 30 -14 16 -30 29 -37 30 -7 0 -17 9 -23 20 -6 11 -17
20 -25 20 -8 0 -15 7 -15 15 0 8 -7 15 -15 15 -8 0 -15 7 -15 15 0 8 -7 15
-15 15 -8 0 -15 7 -15 15 0 8 -7 15 -15 15 -9 0 -18 7 -21 15 -4 8 -12 15 -20
15 -8 0 -14 9 -14 19 0 10 -6 18 -12 17 -7 0 -14 4 -16 9 -2 6 -12 13 -24 18
-12 4 -18 13 -14 22 3 8 2 14 -2 14 -20 -3 -32 3 -32 16 0 8 -4 15 -10 15 -13
0 -56 43 -52 53 1 4 -5 7 -13 7 -8 0 -15 7 -15 15 0 8 -7 15 -16 15 -10 0 -14
6 -10 15 3 8 0 15 -7 15 -15 0 -57 44 -57 59 0 6 -7 11 -15 11 -8 0 -15 4 -15
10 0 5 -15 24 -32 43 -40 41 -68 75 -68 83 0 3 -14 18 -31 34 -20 18 -29 33
-24 41 6 9 3 11 -8 6 -13 -5 -21 3 -31 28 -8 19 -20 35 -25 35 -6 0 -11 10
-11 23 0 18 -2 19 -10 7 -8 -13 -11 -11 -16 8 -4 12 -13 22 -21 22 -11 0 -14
7 -10 21 4 15 2 19 -9 15 -9 -4 -18 3 -24 18 -5 13 -20 35 -34 49 -14 15 -26
33 -26 42 0 8 -7 15 -15 15 -8 0 -15 4 -15 9 0 18 -45 80 -57 81 -7 0 -13 9
-13 19 0 10 -7 21 -15 25 -8 3 -15 15 -15 26 0 11 -7 23 -15 26 -8 4 -15 12
-15 20 0 8 -7 14 -15 14 -10 0 -15 10 -15 29 0 20 -6 32 -19 36 -13 4 -18 12
-14 28 4 17 3 19 -6 7 -5 -8 -11 -12 -13 -10 -18 29 -30 49 -40 70 -7 14 -17
28 -23 32 -5 4 -10 11 -11 15 -2 20 -17 42 -25 37 -5 -3 -9 4 -9 15 0 12 -9
30 -20 41 -11 11 -20 27 -20 36 0 8 -4 12 -10 9 -5 -3 -10 3 -10 14 0 12 -4
21 -10 21 -5 0 -13 15 -18 32 -4 18 -15 33 -23 33 -8 0 -16 13 -19 33 -3 18
-9 32 -15 32 -5 0 -11 8 -13 19 -2 11 -10 25 -18 31 -8 7 -14 18 -14 25 0 8
-5 15 -12 17 -6 2 -13 15 -15 29 -2 13 -10 29 -18 35 -8 6 -15 23 -15 37 0 18
-4 25 -14 21 -9 -4 -16 6 -20 30 -4 20 -11 36 -15 36 -5 0 -11 14 -14 30 -4
18 -13 30 -22 30 -8 0 -14 3 -14 8 5 31 -3 62 -16 62 -10 0 -15 10 -15 30 0
17 -5 29 -11 28 -7 -2 -16 11 -21 29 -4 18 -13 35 -18 38 -6 3 -10 17 -10 31
0 14 -7 27 -15 30 -9 4 -15 19 -15 40 0 22 -5 34 -14 34 -16 0 -26 21 -26 56
0 14 -4 23 -9 20 -5 -3 -12 10 -15 29 -4 19 -11 35 -16 35 -6 0 -10 11 -10 24
0 35 -18 78 -30 71 -6 -4 -10 10 -10 35 0 24 -7 48 -15 56 -8 9 -15 26 -15 40
0 14 -7 27 -15 30 -9 4 -15 19 -15 39 0 18 -7 38 -15 45 -8 7 -15 28 -15 46 0
22 -7 40 -20 51 -11 10 -20 27 -20 38 0 11 -7 29 -15 39 -8 11 -15 34 -15 52
0 20 -6 34 -16 38 -14 5 -16 16 -11 56 5 38 3 50 -7 50 -17 0 -26 22 -26 60 0
16 -7 35 -15 44 -10 10 -15 35 -15 76 0 35 -4 59 -9 55 -14 -8 -19 5 -25 71
-3 32 -11 61 -16 62 -6 2 -10 39 -10 83 0 44 -4 78 -9 75 -11 -7 -20 27 -22
84 -1 58 -13 96 -27 92 -9 -1 -12 28 -12 100 0 65 -4 98 -9 89 -14 -22 -23 58
-19 167 2 67 0 91 -9 88 -19 -8 -22 29 -24 254 0 127 -5 223 -12 235 -17 32
-19 320 -3 388 9 38 14 128 15 260 1 164 4 204 16 213 12 9 15 38 15 137 0
130 6 170 21 145 5 -7 9 26 9 82 0 52 5 102 10 110 8 12 10 10 10 -9 0 -45 9
-16 19 64 5 44 14 81 20 83 7 2 11 33 11 73 0 47 5 78 16 94 11 17 14 36 9 67
-6 49 8 84 25 58 7 -11 10 7 10 59 0 54 4 77 15 85 9 6 18 35 22 66 3 30 9 60
13 65 4 6 10 27 14 48 4 21 11 35 17 32 5 -4 9 10 9 32 0 53 10 85 25 79 9 -3
11 7 7 39 -4 35 -1 46 17 61 13 11 21 31 21 49 0 16 7 39 15 49 8 11 15 30 15
43 0 14 6 23 15 23 12 0 15 13 15 55 0 40 4 57 15 61 8 4 15 18 15 33 0 15 9
34 20 44 14 12 20 29 20 57 0 25 5 43 14 46 7 3 13 17 13 31 1 14 5 28 11 32
5 3 12 15 14 26 2 11 9 19 15 18 13 -3 22 18 25 64 1 17 6 29 10 27 4 -3 10 5
12 18 16 76 17 80 32 74 8 -3 12 -2 9 4 -8 13 6 61 16 54 5 -3 9 6 9 20 0 14
4 26 10 26 5 0 15 18 21 40 7 24 15 36 20 29 4 -7 9 0 13 17 11 47 53 128 59
113 3 -8 6 3 6 24 1 23 7 40 15 43 8 3 17 26 21 54 4 28 13 51 21 54 8 3 14
19 14 36 0 20 5 30 15 30 8 0 14 3 14 8 -3 19 2 33 11 27 6 -3 10 -1 10 6 0 7
7 19 15 28 48 53 55 62 55 71 0 6 5 10 11 10 5 0 15 14 20 30 6 17 15 30 20
30 5 0 9 7 9 15 0 8 9 24 20 35 11 11 20 27 20 35 0 8 4 15 9 15 5 0 12 11 15
25 4 14 11 25 16 25 6 0 10 6 10 13 0 7 16 32 35 54 19 23 35 49 35 58 0 12 5
15 22 10 17 -6 20 -4 15 9 -4 10 1 24 13 36 11 11 20 27 20 35 0 8 5 15 10 15
6 0 10 7 10 15 0 8 6 15 13 15 7 0 17 10 22 23 6 12 16 21 22 20 6 -1 10 3 10
10 -1 38 4 49 19 43 11 -4 14 -1 10 12 -4 12 5 24 29 41 19 13 35 29 35 35 0
6 14 25 30 43 17 18 30 35 30 38 0 13 44 64 51 59 4 -2 10 5 14 16 3 11 10 20
14 20 4 0 13 11 19 25 6 14 18 25 27 25 8 0 15 7 15 15 0 8 4 15 9 15 5 0 11
9 14 20 3 11 12 20 21 20 10 0 13 6 10 15 -4 9 0 15 9 15 8 0 17 7 21 15 3 8
13 15 22 15 10 0 14 6 11 14 -6 15 32 56 51 56 7 0 11 5 9 12 -1 7 5 12 13 13
8 0 15 5 15 10 1 18 29 55 42 55 7 0 12 3 10 8 -3 9 40 52 53 52 6 0 18 16 27
35 9 19 23 35 30 35 7 0 13 5 13 10 0 6 8 14 17 17 10 4 28 20 41 35 13 15 30
28 38 28 8 0 14 6 14 13 0 14 80 83 92 80 4 -2 8 6 8 17 0 11 7 20 15 20 8 0
15 5 15 10 0 6 8 14 17 17 9 4 24 14 33 22 47 44 86 75 92 73 4 -1 5 5 2 12
-3 8 3 17 14 20 11 4 23 13 26 22 4 10 13 13 32 8 23 -6 26 -4 21 10 -4 9 -3
16 2 16 4 0 25 18 46 39 21 21 45 37 52 34 9 -4 11 0 7 11 -4 12 0 16 15 16
12 0 21 5 21 11 0 5 14 15 30 20 17 6 30 17 30 25 0 8 7 14 15 14 8 0 15 5 15
10 0 6 7 10 16 10 9 0 18 9 21 20 3 11 11 20 18 20 7 0 18 7 25 15 7 8 21 15
31 15 11 0 19 7 19 15 0 8 9 15 20 15 11 0 20 6 20 14 0 8 11 17 25 20 14 4
25 11 25 16 0 6 9 10 20 10 10 0 30 10 44 23 39 35 55 47 65 47 5 0 11 7 15
15 3 8 14 15 24 15 10 0 27 9 37 20 10 11 24 20 32 20 8 0 11 5 8 10 -3 6 -1
10 4 10 6 0 11 7 11 15 0 9 9 15 25 15 18 0 23 4 19 15 -4 8 -2 15 2 16 5 0
17 2 27 4 9 2 17 -1 17 -6 0 -5 5 -9 11 -9 6 0 8 9 4 21 -5 15 -2 22 14 26 11
3 18 9 16 14 -3 4 11 11 31 15 19 3 38 13 41 20 3 9 22 14 55 14 27 0 47 4 44
9 -6 9 36 31 59 31 8 0 15 5 15 10 0 6 11 10 24 10 14 0 32 7 40 16 9 8 25 16
35 17 11 1 22 9 24 19 3 11 15 18 31 18 14 0 26 4 26 9 0 5 14 14 30 20 18 6
30 6 30 0 0 -5 5 -9 10 -9 6 0 10 8 8 18 -2 11 4 18 19 20 12 2 27 10 33 18 7
8 30 14 51 14 25 0 38 4 37 12 -2 6 12 15 31 19 18 4 36 11 40 17 3 5 17 12
31 13 13 2 33 12 42 22 10 10 34 17 56 18 27 0 32 2 18 8 -18 7 -18 8 -2 14
10 4 35 7 56 7 24 0 40 5 44 15 3 9 19 15 38 16 18 0 27 3 20 6 -24 9 0 23 41
23 23 0 51 7 61 15 11 8 32 15 47 15 34 0 60 10 54 20 -7 11 58 22 92 15 22
-4 24 -3 8 4 -19 8 -18 9 8 20 16 6 42 11 58 11 17 0 28 4 24 10 -8 14 39 23
80 16 23 -5 35 -3 35 4 0 6 -4 8 -10 5 -5 -3 -10 -2 -10 3 0 10 47 22 86 22
12 0 29 7 38 15 9 10 36 15 78 16 44 1 55 3 38 8 l-25 8 30 6 c17 3 51 9 78
13 26 3 47 10 47 15 0 5 29 9 64 9 40 0 66 4 68 12 3 7 38 13 94 16 72 4 91 8
102 23 11 16 27 19 97 19 55 0 85 4 87 12 3 8 45 13 128 16 87 3 128 9 138 18
10 10 48 14 145 15 73 1 136 1 141 0 4 -1 13 2 20 7 6 5 56 10 111 11 54 1
102 4 105 8 5 6 561 -5 620 -12z"/>
<path d="M9570 15520 c0 -6 -48 -10 -124 -10 -90 0 -126 -3 -129 -12 -4 -10
-6 -10 -6 0 -1 17 -28 15 -35 -3 -4 -11 -22 -15 -69 -15 -83 0 -127 -9 -127
-26 0 -11 -20 -14 -91 -14 -53 0 -88 -4 -84 -9 7 -12 -17 -18 -80 -20 -27 -1
-57 -8 -65 -16 -8 -7 -37 -15 -65 -18 -90 -10 -180 -31 -188 -44 -4 -7 -24
-15 -45 -19 -20 -4 -41 -10 -47 -14 -5 -5 -28 -9 -50 -11 -22 -2 -50 -10 -62
-19 -13 -11 -37 -16 -60 -15 -42 3 -61 -4 -43 -15 7 -4 -7 -10 -33 -14 -25 -4
-48 -13 -51 -21 -4 -10 -20 -15 -50 -15 -36 0 -44 -3 -40 -15 5 -11 -1 -15
-24 -15 -16 0 -35 -7 -42 -15 -7 -8 -26 -15 -43 -15 -16 0 -35 -7 -42 -16 -7
-10 -27 -17 -53 -18 -22 0 -36 -4 -30 -7 19 -12 -3 -29 -38 -29 -21 0 -33 -4
-32 -12 2 -7 -12 -15 -32 -18 -33 -5 -35 -7 -36 -47 -1 -30 3 -43 12 -43 8 0
14 -6 14 -14 0 -8 7 -16 15 -20 8 -3 15 -15 15 -26 0 -11 9 -29 20 -40 11 -11
20 -26 20 -34 0 -8 7 -17 16 -20 10 -4 14 -14 11 -26 -3 -12 0 -20 8 -20 7 0
18 -13 24 -30 5 -16 15 -30 20 -30 6 0 11 -11 11 -24 0 -13 7 -26 15 -30 8 -3
15 -17 15 -31 0 -15 6 -25 14 -25 8 0 17 -11 20 -25 4 -14 11 -25 16 -25 6 0
10 -9 10 -20 0 -11 9 -28 20 -37 11 -10 20 -26 20 -36 0 -9 7 -20 15 -23 8 -4
15 -17 15 -30 0 -14 5 -23 13 -22 8 2 11 -8 10 -30 -1 -28 2 -32 18 -27 15 5
19 1 19 -20 0 -14 7 -28 15 -31 8 -4 15 -15 15 -25 0 -11 9 -27 20 -36 11 -10
20 -23 20 -29 0 -7 3 -14 8 -16 11 -5 52 -85 52 -102 0 -9 7 -16 15 -16 10 0
15 -10 15 -30 0 -19 5 -29 13 -28 6 2 13 -9 15 -24 2 -19 8 -25 18 -21 10 4
14 -2 14 -21 0 -15 7 -29 15 -32 8 -4 15 -17 15 -30 0 -14 7 -27 15 -30 8 -3
25 -27 37 -52 13 -26 29 -51 35 -55 7 -4 13 -17 13 -28 0 -11 7 -22 15 -25 8
-4 15 -14 15 -24 0 -10 7 -25 15 -34 8 -8 15 -24 15 -36 0 -12 4 -18 11 -15 5
4 15 -7 22 -24 6 -17 15 -31 19 -31 4 0 8 -9 8 -19 0 -11 5 -23 11 -26 10 -7
31 -50 34 -70 0 -5 6 -9 13 -7 7 1 12 -7 12 -17 0 -10 7 -21 15 -25 8 -3 15
-15 15 -26 0 -11 7 -23 15 -26 8 -4 15 -17 15 -30 0 -14 7 -27 15 -30 8 -4 15
-15 15 -25 0 -10 9 -28 20 -39 12 -12 18 -25 15 -31 -4 -5 -1 -8 6 -7 6 2 16
-10 22 -27 5 -16 16 -34 23 -38 8 -4 14 -16 14 -26 0 -10 7 -24 15 -31 8 -7
15 -19 15 -27 0 -7 7 -16 15 -19 8 -4 12 -10 10 -15 -3 -4 3 -17 13 -27 11
-11 22 -31 26 -46 3 -14 11 -26 16 -26 6 0 10 -9 10 -19 0 -29 11 -52 21 -45
5 3 12 -3 16 -13 4 -10 13 -24 20 -31 7 -7 13 -22 13 -33 0 -10 7 -19 15 -19
9 0 15 -9 15 -24 0 -13 6 -29 14 -35 8 -7 18 -26 21 -42 4 -16 11 -29 16 -29
5 0 9 -4 9 -10 0 -5 9 -19 20 -30 11 -11 20 -27 20 -35 0 -8 5 -15 10 -15 6 0
10 -8 10 -19 0 -10 7 -24 15 -31 8 -7 15 -19 15 -26 0 -8 9 -22 20 -31 11 -10
20 -25 20 -35 0 -10 7 -18 15 -18 9 0 15 -9 15 -25 0 -14 7 -28 15 -31 8 -4
15 -16 15 -29 0 -13 7 -25 15 -29 8 -3 15 -14 15 -23 0 -10 9 -26 20 -36 11
-9 20 -23 20 -31 0 -8 7 -16 15 -20 8 -3 15 -16 15 -30 0 -13 7 -26 15 -30 8
-3 15 -15 15 -26 0 -11 4 -20 9 -20 5 0 14 -13 20 -30 5 -16 15 -30 20 -30 6
0 11 -13 11 -30 0 -21 4 -28 14 -24 9 4 16 -6 20 -31 4 -19 11 -33 17 -30 5 4
9 -3 9 -13 0 -11 7 -25 15 -32 8 -7 15 -20 15 -30 0 -10 9 -20 20 -23 15 -4
20 -14 20 -36 0 -19 5 -30 12 -28 7 1 14 -8 16 -21 2 -13 10 -26 18 -29 8 -3
14 -10 14 -16 0 -21 35 -86 47 -87 6 0 14 -13 18 -29 3 -16 13 -32 21 -35 8
-3 14 -17 14 -31 0 -14 5 -25 10 -25 6 0 10 -9 10 -20 0 -11 7 -20 15 -20 8 0
15 -7 15 -15 0 -8 9 -24 20 -35 11 -11 20 -31 20 -45 0 -14 5 -24 11 -22 7 1
16 -13 21 -30 5 -18 13 -33 18 -33 6 0 10 -9 10 -20 0 -11 4 -20 9 -20 10 0
27 -39 23 -52 -1 -4 7 -10 18 -13 14 -4 20 -15 20 -36 0 -18 5 -28 12 -26 7 1
14 -8 16 -20 2 -12 10 -27 18 -33 8 -7 14 -18 14 -25 0 -7 7 -15 15 -19 8 -3
15 -17 15 -31 0 -14 5 -25 11 -25 5 0 15 -13 20 -30 6 -16 15 -30 20 -30 5 0
9 -9 9 -20 0 -11 4 -20 10 -20 5 0 13 -15 18 -32 4 -18 15 -33 23 -33 8 0 15
-12 17 -27 2 -16 9 -28 18 -28 9 0 14 -11 14 -30 0 -16 4 -30 10 -30 5 0 17
-16 26 -35 l16 -35 2612 2 2611 3 3 53 c2 37 -1 57 -12 68 -12 12 -16 38 -16
111 0 96 -15 177 -31 167 -5 -3 -9 41 -9 98 0 66 -4 98 -9 89 -14 -22 -24 25
-19 93 2 45 0 55 -12 53 -11 -1 -16 11 -18 52 -2 30 -10 60 -18 68 -8 8 -14
34 -14 61 0 35 -5 52 -20 65 -14 11 -20 29 -20 56 0 22 -5 41 -10 43 -6 2 -12
24 -14 50 -2 26 -10 55 -17 64 -8 10 -14 38 -14 63 0 29 -4 45 -11 44 -6 -1
-14 16 -18 38 -3 22 -13 42 -21 45 -10 4 -15 20 -15 50 0 32 -4 44 -15 44 -9
0 -15 9 -15 24 0 14 -7 31 -15 40 -8 8 -15 31 -15 51 0 21 -6 38 -14 41 -8 3
-17 20 -20 39 -4 18 -13 38 -21 45 -8 7 -15 29 -15 49 0 23 -3 31 -9 23 -7
-11 -10 -10 -15 3 -3 9 -6 25 -6 35 0 9 -7 23 -15 30 -8 7 -15 21 -15 32 0 11
-7 26 -15 34 -8 9 -15 29 -15 45 0 19 -4 28 -11 24 -5 -4 -15 7 -22 24 -6 17
-15 31 -19 31 -4 0 -8 6 -8 14 0 21 -50 116 -61 116 -5 0 -9 11 -9 24 0 13 -7
26 -15 30 -8 3 -15 15 -15 26 0 11 -7 20 -15 20 -8 0 -15 9 -15 19 0 11 -7 26
-15 35 -8 8 -15 24 -15 36 0 14 -8 24 -20 27 -12 3 -20 12 -18 22 3 14 -3 23
-47 72 -8 9 -15 26 -15 38 0 12 -7 24 -15 27 -8 4 -15 12 -15 19 0 8 -13 29
-30 47 -16 18 -30 38 -30 45 0 7 -8 21 -17 31 -40 41 -61 71 -56 76 4 3 -1 6
-10 6 -10 0 -17 7 -17 15 0 9 -9 25 -20 37 -11 12 -26 34 -32 50 -7 15 -19 28
-26 28 -7 0 -11 4 -7 9 3 5 -5 17 -17 25 -12 9 -19 16 -16 16 4 0 -4 12 -18
28 -14 15 -32 34 -40 43 -8 9 -14 21 -14 27 0 6 -13 21 -30 34 -16 12 -30 28
-30 35 0 7 -7 13 -15 13 -8 0 -17 11 -21 24 -3 14 -12 27 -20 30 -8 3 -14 12
-14 21 0 8 -7 15 -15 15 -8 0 -15 5 -15 10 0 6 -7 10 -15 10 -8 0 -15 7 -15
17 0 15 -67 83 -82 83 -5 0 -8 7 -8 15 0 8 -13 24 -30 37 -16 12 -30 28 -30
35 0 7 -7 13 -15 13 -8 0 -15 7 -15 15 0 8 -7 15 -16 15 -10 0 -14 6 -10 15 3
9 -1 15 -11 15 -8 0 -34 20 -57 43 -22 24 -49 47 -60 50 -11 5 -16 13 -12 22
3 9 0 15 -9 15 -8 0 -15 7 -15 15 0 8 -9 15 -20 15 -11 0 -23 7 -26 15 -4 8
-10 15 -15 15 -12 0 -55 43 -52 52 2 5 -4 8 -12 8 -8 0 -15 5 -15 10 0 6 -11
15 -25 20 -14 5 -25 16 -25 25 0 8 -9 15 -20 15 -11 0 -20 3 -20 8 0 4 -17 18
-37 32 -21 14 -49 37 -64 53 -14 15 -30 27 -35 27 -5 0 -17 8 -26 18 -24 25
-40 37 -61 45 -10 4 -15 11 -12 17 4 6 -7 13 -24 16 -17 4 -31 13 -31 20 0 8
-10 14 -25 14 -14 0 -24 5 -22 12 1 6 -9 14 -23 18 -14 4 -24 12 -23 18 2 7
-6 12 -16 12 -10 0 -21 7 -25 15 -3 8 -12 15 -20 15 -9 0 -20 9 -26 20 -6 11
-20 20 -30 20 -11 0 -20 4 -20 9 0 5 -9 11 -20 14 -11 3 -20 13 -20 22 0 11
-5 15 -15 11 -21 -8 -45 3 -45 20 0 8 -7 14 -15 14 -23 0 -84 34 -85 48 0 6
-11 12 -25 12 -13 0 -28 6 -32 14 -4 8 -19 16 -33 18 -14 2 -24 9 -23 16 2 6
-8 14 -22 18 -36 9 -95 40 -89 47 3 3 -14 10 -38 14 -24 6 -42 15 -40 21 1 7
-10 12 -26 12 -16 0 -37 7 -48 15 -10 8 -29 15 -41 15 -16 0 -23 6 -23 21 0
11 -4 18 -10 14 -13 -8 -61 5 -54 16 3 5 -6 9 -19 9 -29 0 -55 25 -35 33 7 3
-9 4 -35 2 -38 -4 -52 0 -67 15 -11 11 -31 20 -45 20 -14 0 -25 4 -25 9 0 12
-67 34 -79 27 -5 -4 -12 -2 -15 3 -4 5 8 12 26 14 18 2 3 5 -33 5 -47 2 -68 6
-72 16 -3 8 -19 17 -36 21 -17 3 -29 12 -28 18 1 7 -13 11 -38 10 -23 -1 -53
6 -70 17 -18 11 -43 16 -62 14 -19 -2 -38 2 -47 11 -9 9 -34 15 -64 15 -41 0
-51 3 -55 20 -3 12 -14 20 -29 21 -12 1 -38 2 -57 3 -19 0 -36 7 -38 14 -3 7
-24 12 -58 12 -37 0 -55 4 -58 14 -4 10 -25 16 -64 18 -40 2 -57 7 -55 16 1 9
-22 12 -93 12 -70 0 -94 3 -92 12 1 7 -8 14 -20 16 -17 2 -23 -2 -23 -15 0
-15 -2 -14 -16 5 -14 20 -24 22 -100 22 -68 0 -84 3 -84 15 0 12 -20 15 -119
15 -86 0 -121 4 -125 13 -5 10 -7 10 -12 0 -3 -7 -13 -13 -23 -13 -9 0 -23 6
-30 13 -11 10 -14 10 -18 0 -6 -15 -33 -17 -33 -3 0 6 -117 10 -330 10 -213 0
-330 -4 -330 -10 0 -5 -9 -10 -20 -10 -11 0 -20 5 -20 10 0 6 -4 10 -10 10 -5
0 -10 -4 -10 -10z"/>
<path d="M6853 14553 c26 -7 10 -23 -23 -23 -15 0 -30 -7 -34 -15 -3 -8 -15
-15 -26 -15 -11 0 -20 -7 -20 -15 0 -9 -8 -19 -17 -22 -10 -4 -22 -13 -26 -20
-5 -9 -16 -11 -29 -7 -14 4 -18 3 -13 -6 8 -13 -22 -44 -53 -54 -12 -4 -27
-16 -32 -26 -6 -11 -16 -17 -25 -14 -11 5 -13 2 -9 -10 6 -15 -5 -21 -29 -17
-5 1 -6 -3 -2 -9 3 -5 -5 -14 -19 -20 -14 -5 -26 -14 -26 -19 0 -5 -8 -12 -18
-15 -11 -4 -25 -18 -32 -31 -8 -14 -24 -28 -37 -31 -13 -4 -23 -12 -23 -20 0
-8 -7 -14 -15 -14 -14 0 -55 -34 -55 -45 0 -3 0 -9 0 -15 0 -5 -7 -10 -15 -10
-8 0 -15 -4 -15 -10 0 -5 -9 -10 -20 -10 -11 0 -20 -4 -20 -10 0 -11 -147
-160 -158 -160 -4 0 -13 -13 -19 -30 -7 -18 -18 -30 -29 -30 -9 0 -14 -3 -11
-7 4 -3 -6 -14 -22 -24 -16 -10 -31 -28 -33 -41 -2 -16 -9 -22 -22 -20 -10 2
-16 -1 -13 -5 3 -5 -7 -20 -24 -33 -16 -14 -29 -31 -29 -38 0 -7 -7 -15 -15
-19 -9 -3 -22 -18 -31 -34 -8 -16 -20 -29 -27 -29 -6 0 -20 -12 -29 -28 -35
-55 -43 -67 -49 -72 -3 -3 -8 -13 -12 -22 -4 -12 -12 -15 -23 -11 -11 4 -15 3
-10 -5 3 -6 1 -14 -7 -19 -15 -9 -56 -71 -88 -130 -7 -13 -16 -23 -21 -23 -4
0 -8 -9 -8 -20 0 -14 -7 -20 -21 -20 -11 0 -18 -4 -15 -9 3 -4 -8 -23 -24 -41
-16 -18 -39 -52 -51 -74 -12 -23 -27 -45 -35 -49 -8 -4 -14 -16 -14 -26 0 -11
-7 -21 -15 -25 -8 -3 -15 -16 -15 -28 0 -13 -9 -31 -20 -41 -11 -9 -20 -24
-20 -33 0 -10 -5 -14 -15 -10 -12 4 -14 0 -9 -18 4 -18 1 -25 -15 -29 -14 -3
-21 -13 -21 -30 0 -14 -7 -27 -15 -31 -8 -3 -15 -17 -15 -32 0 -19 -4 -25 -15
-20 -11 4 -15 -1 -15 -18 0 -13 -7 -29 -15 -36 -8 -7 -15 -21 -15 -31 0 -11
-4 -19 -9 -19 -12 0 -61 -95 -61 -117 0 -10 -6 -13 -16 -9 -8 3 -12 2 -9 -4
10 -16 -5 -50 -21 -50 -9 0 -14 -10 -14 -29 0 -16 -7 -34 -15 -41 -8 -7 -15
-28 -15 -47 0 -21 -6 -36 -15 -39 -8 -4 -15 -14 -15 -24 0 -28 -11 -51 -21
-44 -5 3 -9 -6 -9 -19 0 -13 -8 -32 -19 -41 -10 -9 -21 -35 -25 -56 -3 -22
-11 -40 -16 -40 -6 0 -10 -16 -10 -35 0 -19 -4 -35 -9 -35 -5 0 -14 -21 -21
-47 -10 -40 -14 -45 -20 -28 -6 14 -9 5 -9 -31 -1 -33 -6 -56 -16 -64 -8 -7
-18 -35 -22 -64 -6 -43 -8 -47 -14 -26 -8 27 -10 19 -14 -49 -2 -24 -8 -47
-13 -50 -5 -3 -12 -28 -15 -56 -4 -27 -11 -51 -17 -53 -5 -2 -10 -25 -10 -50
0 -36 -5 -50 -20 -60 -16 -10 -20 -23 -20 -65 0 -29 -5 -58 -12 -65 -6 -6 -13
-42 -15 -79 -5 -84 -8 -94 -28 -87 -13 5 -15 2 -9 -20 9 -37 -5 -183 -17 -165
-5 9 -9 -23 -9 -83 0 -71 -3 -97 -12 -95 -17 3 -26 -67 -27 -200 -1 -94 -4
-113 -16 -113 -22 0 -23 -815 -1 -823 11 -5 15 -36 18 -147 3 -121 6 -144 20
-154 15 -11 18 -31 19 -127 0 -68 4 -106 8 -94 11 25 25 -77 19 -129 -3 -27 0
-36 14 -39 15 -4 18 -16 18 -64 1 -35 6 -66 15 -77 9 -12 15 -42 15 -71 0 -39
5 -56 20 -70 14 -13 20 -31 20 -62 0 -23 5 -43 10 -43 6 0 10 -15 10 -33 0
-22 8 -41 21 -53 16 -14 20 -29 18 -64 -2 -27 2 -44 8 -43 6 1 13 -21 16 -50
4 -29 13 -57 22 -63 9 -7 15 -28 16 -55 0 -24 3 -38 6 -31 10 24 23 11 23 -22
0 -19 7 -41 15 -50 8 -8 15 -30 15 -50 0 -23 6 -38 17 -45 11 -6 17 -21 16
-44 -1 -29 2 -34 18 -30 16 5 19 0 19 -35 0 -26 5 -42 15 -46 9 -3 15 -18 15
-36 0 -20 5 -30 15 -30 10 0 15 -11 15 -35 0 -24 5 -35 15 -35 10 0 15 -10 15
-30 0 -19 5 -30 14 -30 16 0 31 -34 21 -50 -3 -6 1 -13 9 -16 10 -4 16 -18 16
-35 0 -18 5 -29 14 -29 8 0 17 -13 21 -29 3 -16 13 -32 21 -35 8 -3 14 -17 14
-31 0 -15 6 -25 14 -25 9 0 16 -12 18 -32 2 -20 8 -32 16 -30 7 1 12 -9 12
-28 0 -16 5 -30 10 -30 6 0 15 -11 20 -25 5 -14 14 -25 20 -25 5 0 12 -11 16
-25 3 -14 12 -25 20 -25 9 0 14 -11 14 -30 0 -18 6 -33 15 -36 10 -4 13 -13 9
-26 -4 -15 -2 -19 12 -16 10 2 19 -3 20 -9 1 -7 2 -20 3 -28 0 -8 8 -15 16
-15 9 0 15 -10 15 -26 0 -14 4 -22 10 -19 5 3 15 -5 22 -19 6 -14 15 -26 20
-26 4 0 8 -9 8 -20 0 -11 5 -20 11 -20 5 0 15 -13 20 -30 6 -16 17 -30 25 -30
8 0 14 -7 14 -15 0 -8 5 -15 11 -15 5 0 15 -13 20 -30 6 -16 15 -30 20 -30 5
0 9 -6 9 -14 0 -8 7 -16 15 -20 8 -3 15 -12 15 -21 0 -8 6 -15 14 -15 8 0 18
-9 21 -20 3 -11 10 -20 15 -20 4 0 11 -11 14 -25 4 -14 13 -25 21 -25 8 0 15
-7 15 -15 0 -8 7 -15 15 -15 8 0 14 -3 14 -7 -3 -21 2 -33 16 -33 8 0 15 -6
15 -12 0 -7 16 -30 35 -51 19 -21 35 -42 35 -46 0 -5 7 -11 15 -15 8 -3 15
-12 15 -21 0 -8 5 -15 10 -15 18 0 53 -38 45 -49 -3 -6 1 -11 10 -11 18 0 54
-38 55 -57 0 -7 7 -10 15 -7 9 4 15 0 15 -10 0 -9 7 -16 15 -16 8 0 15 -7 15
-15 0 -9 7 -18 15 -21 8 -4 12 -10 9 -15 -3 -5 3 -12 13 -16 30 -11 61 -46 55
-62 -4 -10 -1 -13 11 -8 11 4 17 1 17 -8 0 -8 7 -15 15 -15 9 0 18 -7 21 -15
4 -8 12 -15 20 -15 13 0 18 -12 15 -32 0 -4 6 -5 14 -2 8 4 17 -1 21 -10 3 -9
13 -16 21 -16 11 0 14 -7 10 -21 -4 -15 -2 -19 10 -15 9 4 17 -1 20 -14 3 -11
12 -20 19 -20 8 0 14 -5 14 -10 0 -6 12 -15 26 -20 14 -6 22 -14 19 -20 -3 -5
1 -10 9 -10 17 0 66 -45 66 -62 0 -5 7 -8 15 -4 9 3 19 -3 25 -14 6 -11 16
-19 23 -17 7 1 11 -6 11 -16 -1 -9 3 -17 10 -16 25 3 36 -2 36 -16 0 -8 6 -15
13 -15 8 0 27 -13 43 -30 16 -16 35 -30 42 -30 7 0 15 -7 18 -15 4 -8 16 -15
29 -15 14 0 25 -7 28 -20 7 -29 67 -29 67 0 0 11 7 20 15 20 10 0 15 10 15 30
0 24 4 30 21 30 11 0 17 5 14 10 -3 6 -3 20 0 31 6 17 9 19 16 8 6 -10 9 -4 9
19 0 22 5 32 15 32 8 0 15 9 15 20 0 11 9 28 20 37 11 10 20 28 20 40 0 13 4
23 10 23 5 0 12 11 16 24 4 16 11 23 20 19 10 -4 14 3 14 24 0 17 8 33 20 41
11 7 20 21 20 32 0 11 4 20 9 20 5 0 11 14 14 30 4 17 13 30 21 30 10 0 13 6
10 15 -4 8 1 17 10 21 9 4 16 18 16 34 0 19 6 29 20 33 13 3 20 14 20 30 0 14
7 27 15 31 8 3 15 15 15 26 0 11 7 23 15 26 8 4 15 15 15 25 0 10 7 19 15 19
8 0 15 9 15 20 0 11 7 20 15 20 9 0 15 9 15 23 0 12 9 28 20 35 11 7 20 21 20
32 0 11 4 20 10 20 5 0 12 16 16 36 5 25 11 34 21 30 8 -3 11 -1 8 4 -8 13 11
47 22 40 4 -3 10 6 11 20 2 14 10 29 18 33 8 4 14 18 14 30 0 13 9 30 20 40
11 9 20 24 20 32 0 8 5 15 10 15 6 0 10 12 10 27 0 14 3 23 7 20 10 -10 33 13
33 33 0 10 7 23 15 30 8 7 15 24 15 37 0 18 4 24 14 20 10 -4 13 -1 10 8 -3 7
4 23 15 34 12 12 21 27 21 35 0 8 7 16 15 20 8 3 15 17 15 31 0 14 6 28 14 31
8 3 18 19 21 35 4 16 11 29 16 29 5 0 9 6 9 14 0 7 10 16 21 19 16 4 20 11 16
27 -4 14 1 25 14 33 11 7 19 23 19 38 0 15 7 29 15 33 8 3 15 15 15 26 0 11 7
20 15 20 8 0 15 9 15 20 0 11 7 20 15 20 10 0 15 10 15 28 0 16 8 32 20 40 11
7 20 23 20 37 0 14 4 25 10 25 5 0 12 11 16 25 3 14 13 25 21 25 9 0 13 6 9
15 -3 9 3 19 14 25 12 6 20 21 20 36 0 13 7 27 15 30 8 4 15 17 15 30 0 13 5
24 11 24 5 0 15 14 20 30 6 17 15 30 20 30 5 0 9 8 9 18 0 9 9 23 20 30 11 7
20 23 20 37 0 16 6 25 15 25 9 0 15 9 15 25 0 14 4 25 8 25 4 0 13 14 19 31 7
17 17 28 22 24 7 -4 11 4 11 18 0 14 7 27 15 31 8 3 15 16 15 28 0 13 9 31 20
41 11 9 20 24 20 32 0 8 4 15 9 15 5 0 11 10 13 23 2 12 9 21 16 20 12 -3 16
8 13 38 -1 9 7 19 19 22 13 3 20 13 20 30 0 14 7 27 15 31 8 3 15 17 15 31 0
16 6 25 15 25 8 0 15 9 15 20 0 11 7 23 15 26 9 4 15 19 15 35 0 16 5 28 11
26 12 -2 19 9 46 70 10 23 23 43 30 43 6 0 9 9 6 21 -4 15 0 22 16 26 14 3 21
13 21 28 0 13 7 25 15 29 8 3 15 16 15 30 0 14 5 28 10 31 6 3 10 1 10 -4 0
-6 4 -11 9 -11 5 0 7 9 4 20 -3 11 -2 28 1 37 6 15 8 15 16 3 7 -11 10 -6 10
18 0 44 0 45 12 60 9 11 13 11 20 0 6 -9 8 -5 6 12 -2 15 2 24 9 23 7 -2 15
13 19 32 3 20 12 35 20 35 9 0 14 11 14 29 0 16 6 31 15 35 8 3 15 15 15 26 0
11 7 23 15 26 8 4 15 15 15 25 0 10 6 19 14 19 17 0 28 24 20 45 -4 9 0 15 10
15 9 0 18 12 22 28 10 39 15 46 26 31 7 -10 8 -8 4 7 -4 13 1 28 14 42 11 11
20 28 20 37 0 8 7 15 15 15 10 0 15 10 15 29 0 16 6 31 14 34 8 3 16 18 18 34
2 16 8 27 16 26 6 -2 12 6 12 17 0 11 5 20 10 20 6 0 16 12 23 28 6 15 17 31
24 35 7 4 13 19 13 31 0 13 7 26 15 30 8 3 15 9 14 13 -4 25 3 43 17 43 10 0
14 6 10 15 -3 9 3 19 14 25 11 6 20 21 20 34 0 13 7 26 15 30 8 3 15 15 15 26
0 11 9 29 20 40 11 11 20 27 20 35 0 8 5 15 10 15 6 0 10 9 10 20 0 13 7 20
20 20 18 0 20 7 20 64 0 55 -3 64 -20 69 -14 3 -20 14 -20 31 0 15 -5 25 -12
23 -7 -1 -14 9 -16 23 -2 14 -10 30 -19 37 -9 7 -13 20 -10 33 3 11 1 23 -4
26 -5 3 -9 -1 -9 -8 -1 -7 -7 2 -15 20 -8 17 -19 32 -25 32 -5 0 -10 9 -10 19
0 11 -8 27 -17 37 -10 9 -18 24 -20 33 -1 8 -7 17 -12 19 -6 2 -11 12 -11 23
0 11 -6 22 -14 25 -8 3 -18 19 -21 35 -4 16 -13 29 -21 29 -8 0 -14 10 -14 24
0 13 -7 26 -15 30 -8 3 -15 17 -15 31 0 15 -4 24 -10 20 -6 -3 -13 2 -16 12
-3 10 -12 30 -20 45 -8 14 -14 33 -14 41 0 8 -9 17 -20 20 -14 3 -20 14 -20
32 0 14 -4 23 -10 20 -5 -3 -12 6 -16 20 -3 14 -10 25 -15 25 -5 0 -9 14 -9
30 0 19 -5 30 -14 30 -8 0 -19 14 -25 30 -5 17 -15 30 -20 30 -6 0 -11 11 -11
25 0 16 -6 25 -15 25 -8 0 -15 8 -15 19 0 10 -7 24 -15 31 -8 7 -15 24 -15 37
0 18 -4 24 -15 20 -10 -5 -16 4 -21 28 -3 20 -12 35 -20 35 -8 0 -14 10 -14
26 0 14 -4 23 -9 19 -12 -7 -25 31 -16 45 3 5 0 10 -8 10 -8 0 -20 14 -26 30
-5 17 -15 30 -20 30 -6 0 -11 14 -11 30 0 21 -5 30 -16 30 -9 0 -18 9 -21 20
-3 11 -9 20 -14 20 -5 0 -9 14 -9 30 0 19 -5 30 -14 30 -7 0 -16 14 -19 30 -4
18 -13 30 -22 30 -8 0 -15 8 -15 19 0 10 -7 24 -15 31 -8 7 -15 23 -15 36 0
14 -6 24 -14 24 -8 0 -17 11 -20 25 -4 14 -11 25 -16 25 -6 0 -10 11 -10 25 0
14 -8 29 -19 35 -12 6 -17 17 -14 29 3 10 -1 22 -8 26 -8 5 -10 4 -5 -3 4 -7
3 -12 -3 -12 -6 0 -14 12 -17 28 -4 15 -10 29 -13 32 -4 3 -19 31 -34 63 -15
31 -32 57 -37 57 -6 0 -10 12 -10 26 0 14 -4 23 -9 19 -12 -7 -34 32 -26 45 3
6 -1 10 -9 10 -10 0 -16 9 -16 25 0 14 -6 28 -14 31 -8 3 -16 18 -20 35 -3 17
-12 29 -21 29 -8 0 -15 9 -15 20 0 11 -4 20 -9 20 -5 0 -12 13 -16 29 -3 16
-13 32 -21 35 -8 3 -14 14 -14 24 0 11 -7 25 -15 32 -8 7 -15 21 -15 31 0 10
-8 24 -19 30 -11 8 -16 19 -13 31 3 14 0 17 -12 12 -11 -4 -16 0 -16 14 0 11
-6 27 -14 34 -7 8 -16 23 -20 35 -4 12 -13 27 -21 33 -8 7 -15 20 -15 30 0 10
-7 20 -15 24 -8 3 -15 14 -15 25 0 10 -7 22 -16 25 -11 4 -15 14 -12 31 3 13
2 24 -1 23 -23 -2 -31 6 -31 31 0 20 -6 30 -19 34 -14 3 -18 11 -14 25 3 14
-2 24 -16 31 -12 7 -21 18 -21 26 0 8 -4 15 -10 15 -5 0 -10 8 -10 18 0 11 -9
27 -20 37 -11 10 -20 27 -20 37 0 10 -7 21 -15 24 -8 4 -15 13 -15 21 0 8 -7
21 -15 29 -8 9 -15 24 -15 35 0 10 -7 19 -15 19 -10 0 -15 10 -15 30 0 18 -5
30 -13 30 -7 0 -17 15 -23 33 -5 17 -15 31 -22 30 -6 -2 -12 6 -12 17 0 11 -4
20 -9 20 -5 0 -12 13 -16 29 -3 16 -13 32 -21 35 -8 3 -14 17 -14 31 0 16 -6
25 -15 25 -9 0 -15 9 -15 25 0 14 -7 28 -15 31 -8 4 -15 17 -15 30 0 16 -4 22
-14 18 -10 -4 -16 5 -21 25 -4 17 -11 31 -16 31 -5 0 -9 9 -9 20 0 10 -9 28
-21 39 -12 11 -18 24 -15 30 3 5 -3 12 -14 16 -12 4 -20 15 -20 27 0 11 -7 26
-15 32 -9 6 -17 21 -18 34 0 12 -7 22 -14 22 -7 0 -13 8 -13 19 0 10 -7 24
-15 31 -8 7 -15 20 -15 29 0 9 -9 24 -20 34 -11 9 -20 24 -20 32 0 8 -4 15
-10 15 -5 0 -10 6 -10 14 0 7 -9 25 -20 39 -11 14 -20 32 -20 41 0 9 -4 16
-10 16 -5 0 -12 11 -16 24 -3 14 -12 27 -20 30 -8 3 -14 17 -14 31 0 15 -6 25
-14 25 -8 0 -17 14 -21 30 -4 17 -11 30 -16 30 -5 0 -9 7 -9 15 0 8 -9 24 -21
36 -13 13 -18 27 -14 40 4 11 3 19 -2 18 -23 -4 -33 3 -33 26 0 15 -5 24 -12
23 -8 -2 -14 9 -16 25 -2 16 -10 31 -18 34 -8 3 -14 13 -14 22 -1 25 -25 51
-46 50 -17 -1 -17 -2 -1 -6z"/>
<path d="M10210 9516 c0 -13 -7 -26 -15 -30 -8 -3 -15 -14 -15 -25 0 -11 -9
-22 -20 -26 -13 -4 -20 -15 -20 -31 0 -15 -6 -24 -15 -24 -10 0 -15 -10 -15
-30 0 -20 -5 -30 -15 -30 -8 0 -12 -6 -9 -14 3 -9 -3 -20 -15 -28 -12 -7 -21
-21 -21 -31 0 -10 -7 -20 -15 -23 -9 -4 -15 -19 -15 -35 0 -18 -5 -29 -14 -29
-8 0 -17 -13 -21 -30 -4 -16 -11 -30 -16 -30 -5 0 -9 -9 -9 -20 0 -13 -7 -20
-20 -20 -16 0 -20 -7 -20 -30 0 -20 -5 -30 -15 -30 -10 0 -15 -10 -15 -30 0
-18 -5 -30 -13 -30 -7 0 -14 -10 -14 -22 -1 -13 -9 -28 -18 -34 -8 -6 -15 -19
-15 -29 0 -11 -5 -15 -15 -11 -14 5 -19 -10 -18 -51 1 -7 -5 -13 -12 -13 -8 0
-16 -13 -20 -30 -4 -16 -11 -30 -16 -30 -5 0 -9 -7 -9 -15 0 -8 -9 -23 -20
-32 -11 -10 -20 -21 -20 -25 0 -4 -13 -27 -30 -51 -16 -25 -30 -49 -30 -55 0
-5 -7 -15 -15 -22 -8 -7 -15 -21 -15 -32 0 -10 -7 -21 -15 -24 -8 -4 -15 -16
-15 -29 0 -14 -7 -25 -20 -28 -11 -3 -20 -14 -20 -25 0 -11 -7 -25 -15 -32 -8
-7 -15 -21 -15 -32 0 -10 -4 -17 -9 -14 -5 4 -12 -8 -16 -25 -4 -17 -13 -33
-21 -36 -8 -3 -14 -16 -14 -29 0 -13 -5 -24 -10 -24 -6 0 -13 -8 -17 -17 -3
-10 -13 -26 -22 -36 -9 -11 -16 -26 -16 -35 0 -10 -6 -16 -12 -15 -8 2 -13 -8
-13 -27 0 -17 -5 -30 -11 -30 -5 0 -15 -13 -20 -29 -6 -16 -17 -32 -25 -35 -8
-3 -14 -13 -14 -21 0 -9 -7 -23 -15 -31 -8 -9 -15 -25 -15 -36 0 -14 -5 -18
-15 -14 -11 4 -15 -2 -15 -24 0 -20 -5 -30 -15 -30 -9 0 -15 -9 -15 -25 0 -14
-8 -29 -20 -35 -11 -6 -20 -20 -20 -30 0 -11 -7 -20 -15 -20 -9 0 -15 -9 -15
-25 0 -15 -6 -25 -14 -25 -9 0 -12 -7 -9 -19 3 -11 -4 -28 -16 -40 -12 -12
-21 -27 -21 -35 0 -7 -7 -19 -15 -26 -8 -7 -15 -17 -15 -22 0 -5 -7 -16 -15
-24 -8 -9 -15 -24 -15 -35 0 -11 -7 -22 -15 -25 -8 -4 -15 -14 -15 -24 0 -9
-9 -27 -20 -40 -11 -13 -20 -27 -20 -32 0 -5 -5 -6 -10 -3 -6 4 -10 3 -9 -2 3
-19 -14 -53 -28 -53 -7 0 -13 -6 -12 -12 5 -38 -2 -60 -16 -54 -14 5 -21 -16
-16 -46 0 -5 -3 -8 -8 -8 -11 0 -51 -66 -51 -85 0 -7 -6 -15 -14 -18 -8 -3
-17 -20 -21 -37 -4 -20 -12 -30 -20 -26 -9 3 -11 -2 -7 -16 3 -14 1 -19 -6
-14 -8 5 -10 2 -6 -8 3 -9 1 -16 -5 -16 -6 0 -16 -11 -21 -25 -5 -14 -14 -25
-20 -25 -5 0 -10 -11 -10 -24 0 -13 -7 -29 -15 -36 -8 -7 -15 -21 -15 -32 0
-10 -7 -21 -15 -24 -8 -4 -15 -15 -15 -27 0 -11 -3 -17 -7 -14 -8 8 -63 -86
-63 -108 0 -8 -4 -15 -9 -15 -5 0 -12 -11 -15 -25 -4 -14 -13 -25 -21 -25 -9
0 -15 -10 -15 -26 0 -14 -4 -23 -10 -19 -6 4 -13 -7 -16 -24 -4 -17 -13 -36
-20 -42 -8 -6 -14 -20 -14 -31 0 -10 -6 -21 -14 -24 -8 -3 -17 -16 -20 -30 -4
-13 -11 -24 -16 -24 -6 0 -10 -8 -10 -18 0 -9 -9 -23 -20 -30 -11 -7 -20 -23
-20 -36 0 -13 -6 -26 -14 -29 -8 -3 -16 -16 -18 -29 -2 -13 -9 -22 -16 -21 -6
2 -12 -4 -12 -13 0 -19 -31 -76 -46 -86 -7 -4 -15 -20 -19 -35 -3 -15 -10 -30
-13 -33 -9 -7 -39 -69 -47 -98 -4 -15 -12 -21 -22 -18 -9 4 -14 0 -12 -12 3
-36 -2 -52 -16 -52 -8 0 -15 -9 -15 -20 0 -11 -7 -23 -15 -26 -8 -4 -15 -17
-15 -30 0 -15 -6 -24 -15 -24 -10 0 -15 -10 -15 -26 0 -15 -7 -32 -16 -38 -8
-6 -17 -20 -19 -31 -2 -11 -4 -22 -4 -25 -1 -3 -6 2 -11 10 -7 12 -11 8 -16
-17 -3 -18 -13 -38 -20 -44 -8 -6 -14 -22 -14 -36 0 -13 -4 -22 -9 -19 -5 4
-12 -7 -16 -24 -4 -16 -13 -30 -21 -30 -8 0 -14 -7 -14 -15 0 -8 -4 -15 -10
-15 -5 0 -7 -7 -4 -15 4 -8 1 -15 -5 -15 -6 0 -11 -9 -11 -19 0 -10 -6 -21
-14 -24 -8 -3 -16 -18 -18 -34 -2 -16 -8 -27 -15 -26 -8 2 -13 -8 -13 -23 0
-17 -6 -28 -20 -31 -11 -3 -20 -14 -20 -24 0 -11 -7 -22 -15 -25 -8 -4 -15
-16 -15 -29 0 -13 -7 -26 -16 -29 -11 -4 -14 -17 -12 -48 3 -39 6 -43 33 -48
20 -4 29 -11 27 -21 -2 -13 6 -16 35 -15 26 1 37 -3 36 -11 -2 -9 9 -13 31
-13 20 0 36 -6 39 -14 3 -8 20 -17 37 -21 17 -4 34 -13 37 -21 3 -9 20 -14 43
-14 21 0 43 -7 50 -15 7 -8 25 -15 41 -15 19 0 29 -5 29 -15 0 -11 11 -15 40
-15 27 0 47 -7 60 -20 11 -11 34 -20 53 -21 17 0 26 -3 19 -6 -23 -9 -1 -22
28 -16 38 7 83 -4 77 -20 -3 -9 11 -13 52 -15 31 -1 58 -7 59 -12 2 -6 16 -10
32 -10 48 0 90 -12 90 -26 0 -10 13 -14 41 -14 23 0 55 -7 72 -15 18 -8 55
-16 82 -17 38 -2 49 -7 48 -18 -2 -13 11 -14 82 -12 70 3 86 1 91 -12 5 -13
24 -16 96 -16 74 0 93 -3 103 -17 10 -14 35 -18 134 -21 94 -4 121 -8 121 -18
0 -21 985 -21 993 0 4 10 31 14 109 15 134 2 188 10 188 27 0 11 21 14 96 14
53 0 93 4 90 9 -9 14 21 21 95 21 55 0 69 3 69 15 0 12 13 15 61 15 40 0 65 5
75 15 10 10 36 15 76 15 34 0 58 3 55 7 -15 14 18 33 58 33 24 0 45 4 47 9 2
6 29 11 61 13 39 2 56 7 53 15 -6 15 25 25 67 22 19 -2 31 1 30 8 -1 6 17 13
40 16 23 3 46 13 53 21 7 10 27 16 52 16 33 0 40 3 36 15 -5 12 2 15 34 15 26
0 42 5 46 15 3 9 18 15 37 15 18 0 37 7 43 16 6 8 28 16 47 17 25 1 36 7 35
17 -1 10 11 17 37 20 21 3 38 10 38 15 -1 6 15 10 33 10 19 0 34 2 34 5 -2 22
6 30 28 30 14 0 32 7 40 15 9 8 26 15 40 15 15 0 24 6 24 15 0 9 12 18 30 22
17 3 30 9 30 14 0 5 13 9 29 9 16 0 31 6 34 14 3 8 18 16 34 18 17 2 28 9 28
18 0 8 11 17 25 18 13 2 29 11 36 20 7 9 19 13 33 9 16 -4 21 -1 19 11 -2 10
5 18 17 20 11 2 25 10 30 17 6 7 22 15 35 17 14 1 25 10 25 18 0 9 9 15 25 15
14 0 28 7 32 18 4 9 16 17 27 17 10 0 22 7 25 16 5 12 13 14 32 10 22 -6 25
-4 20 9 -4 11 2 19 20 25 14 6 22 14 19 20 -3 6 4 10 17 10 13 0 29 9 36 20 7
11 18 17 27 14 10 -4 15 0 15 10 0 9 8 16 20 16 11 0 23 7 26 15 4 8 15 15 25
15 12 0 19 7 19 20 0 13 7 20 20 20 11 0 20 4 20 10 0 5 11 12 25 16 14 3 25
12 25 20 0 8 6 14 14 14 8 0 16 7 20 15 3 8 15 15 26 15 11 0 20 7 20 15 0 14
11 19 37 16 8 -1 10 5 7 14 -4 9 1 17 12 22 11 3 22 11 26 17 4 6 13 11 20 11
7 1 12 6 11 13 -2 7 4 12 12 12 8 0 20 9 27 20 7 11 21 20 30 20 10 0 17 3 15
8 -3 11 41 52 57 52 7 0 16 9 19 20 4 14 10 18 23 13 12 -4 15 -3 10 6 -10 15
39 65 54 56 6 -3 10 3 10 15 0 15 5 20 14 17 8 -3 16 2 19 14 3 10 13 19 22
19 9 0 13 5 10 10 -3 6 4 14 17 19 13 6 19 10 14 10 -12 1 37 46 59 55 10 3
15 9 12 12 -7 7 64 80 75 77 4 -2 8 4 8 12 0 9 7 18 15 21 8 4 15 12 15 20 0
8 9 14 21 14 12 0 17 4 14 11 -8 11 27 49 45 49 5 0 10 6 10 13 0 7 13 24 30
37 16 14 29 31 30 39 0 7 6 11 15 7 10 -3 15 1 15 13 0 9 11 28 25 41 14 13
25 29 25 36 0 8 6 11 15 8 11 -5 13 -2 9 10 -4 10 0 18 10 22 9 3 16 12 16 20
0 8 7 14 15 14 8 0 15 5 15 10 0 6 9 20 20 32 11 12 20 27 20 33 0 7 13 22 29
34 16 13 32 34 35 47 4 13 11 24 16 24 6 0 10 9 10 21 0 16 4 19 22 14 17 -6
20 -4 15 9 -4 10 1 24 13 36 11 11 20 27 20 35 0 8 5 15 10 15 6 0 10 6 10 13
0 7 9 20 20 30 11 9 20 23 20 31 0 8 7 16 15 20 8 3 15 12 15 21 0 8 7 15 15
15 9 0 15 9 15 25 0 13 6 28 14 32 8 4 16 17 18 28 2 11 10 19 16 18 7 -2 12
8 12 22 0 14 8 29 20 35 11 6 20 19 20 29 0 10 7 24 15 31 8 7 15 18 15 25 0
7 7 15 15 19 8 3 15 15 15 26 0 11 7 23 15 26 9 4 15 19 15 35 0 19 5 29 15
29 8 0 15 6 15 13 0 7 9 29 20 50 11 20 20 44 20 53 0 11 5 14 16 10 11 -4 14
-1 9 13 -7 24 4 51 21 51 9 0 14 11 14 30 0 18 6 33 15 36 8 4 15 17 15 30 0
14 7 27 15 30 9 4 15 19 15 35 0 17 6 32 15 35 8 4 15 19 15 35 0 15 7 32 15
36 8 5 16 23 18 41 2 18 11 38 19 45 9 6 18 23 22 37 19 86 32 120 43 120 9 0
13 15 13 41 0 26 6 46 16 53 8 7 18 30 21 53 4 28 10 40 18 37 9 -4 11 6 8 39
-5 38 -2 47 15 56 17 9 20 19 17 51 -2 26 1 45 11 54 8 9 14 34 14 61 0 38 4
48 20 52 17 5 20 14 20 58 0 59 8 88 21 79 5 -3 9 28 10 68 0 40 3 67 6 61 12
-30 20 -8 22 60 2 81 8 110 22 102 5 -4 9 32 9 86 0 75 3 94 17 104 14 10 18
35 21 134 4 103 7 121 21 121 10 0 12 3 5 8 -6 4 -13 15 -17 25 -6 16 -141 17
-2632 17 l-2625 0 0 -24z"/>
</g>
</svg>
